<?xml version="1.0" standalone="no"?>

<!DOCTYPE svg PUBLIC "-//W3C//DTD SVG 20010904//EN"

 "http://www.w3.org/TR/2001/REC-SVG-20010904/DTD/svg10.dtd">

<svg version="1.0" xmlns="http://www.w3.org/2000/svg"

 width="1600.000000pt" height="1200.000000pt" viewBox="0 0 1600.000000 1200.000000"

 preserveAspectRatio="xMidYMid meet">

<path fill="#fefefe" stroke="none" d="
M0 600

L0 0

L800 0

L1600 0

L1600 600

L1600 1200

L800 1200

L0 1200

L0 600

Z

"/>

<path fill="#76551a" stroke="none" d="
M984 1167

C981 1164 981 1159 981 1143

C982 1130 984 1118 987 1111

C987 1109 987 1109 982 1109

C976 1109 973 1106 977 1103

C978 1102 980 1101 984 1101

L990 1101

L995 1090

C998 1084 1004 1075 1008 1069

C1012 1063 1015 1058 1015 1057

C1015 1056 1002 1058 994 1060

C990 1061 984 1062 981 1063

L975 1065

L975 1072

C975 1078 974 1079 973 1080

C969 1082 965 1075 966 1068

C967 1067 967 1064 966 1063

C965 1061 965 1060 966 1060

C966 1061 967 1061 967 1060

C968 1059 975 1056 989 1052

C1003 1048 1023 1047 1026 1050

C1027 1050 1028 1052 1028 1052

C1028 1053 1024 1059 1020 1066

C1015 1073 1009 1084 1006 1090

L1000 1102

L1007 1102

C1018 1103 1026 1106 1027 1108

C1027 1111 1027 1111 1023 1110

C1021 1109 1015 1109 1009 1109

C996 1109 997 1108 994 1123

C992 1130 992 1137 992 1150

C991 1167 991 1170 987 1170

C987 1170 985 1169 984 1167

Z

M885 1163

C865 1160 850 1136 857 1122

C860 1118 869 1109 874 1105

L878 1103

L871 1095

C867 1090 863 1085 862 1083

C861 1081 860 1079 860 1080

C858 1081 862 1069 864 1066

C867 1061 876 1055 882 1053

C888 1051 897 1052 900 1055

C902 1056 902 1057 902 1063

C901 1070 898 1077 889 1087

L883 1093

L885 1095

C888 1096 888 1096 892 1094

C897 1091 905 1088 904 1090

C904 1091 904 1091 905 1091

C908 1090 905 1096 901 1100

C898 1103 897 1104 898 1104

C898 1103 899 1103 899 1104

C899 1104 902 1106 905 1108

C919 1118 924 1126 924 1137

C924 1148 917 1157 906 1161

C900 1163 891 1164 885 1163

Z

M904 1149

C911 1145 914 1138 910 1131

C908 1126 904 1123 895 1116

L887 1110

L883 1113

C880 1114 876 1118 872 1122

C866 1128 866 1128 866 1132

C868 1139 876 1148 884 1151

C888 1153 899 1152 904 1149

Z

M886 1085

C892 1078 896 1070 897 1063

C897 1058 897 1058 894 1057

C893 1056 890 1056 888 1056

C882 1057 871 1064 873 1066

C873 1067 873 1067 872 1067

C871 1066 868 1070 868 1072

C868 1074 869 1076 870 1078

C872 1082 880 1090 881 1090

C881 1090 884 1088 886 1085

Z

M1347 1159

C1346 1158 1345 1156 1345 1155

C1343 1149 1348 1126 1356 1105

C1358 1101 1358 1098 1358 1098

C1357 1098 1352 1099 1348 1100

C1337 1101 1318 1101 1313 1100

C1305 1098 1303 1092 1306 1082

C1307 1080 1308 1077 1307 1077

C1307 1076 1307 1076 1308 1077

C1309 1077 1309 1077 1309 1076

C1308 1075 1308 1074 1309 1074

C1309 1075 1311 1071 1314 1067

C1316 1062 1320 1055 1323 1050

C1326 1045 1330 1040 1330 1038

C1331 1037 1331 1036 1332 1036

C1334 1036 1332 1041 1329 1046

C1325 1051 1318 1070 1315 1079

C1314 1084 1314 1086 1315 1086

C1317 1088 1340 1087 1353 1085

L1365 1083

L1367 1077

C1369 1074 1370 1071 1369 1070

C1369 1070 1369 1069 1370 1069

C1371 1068 1375 1058 1374 1057

C1374 1056 1374 1056 1375 1056

C1375 1057 1377 1054 1379 1049

C1382 1043 1389 1030 1392 1028

C1394 1025 1392 1038 1387 1050

C1381 1067 1375 1084 1375 1086

C1375 1087 1374 1090 1373 1091

C1371 1095 1363 1119 1360 1131

C1359 1135 1357 1143 1357 1148

C1356 1155 1355 1158 1353 1159

C1351 1160 1350 1160 1347 1159

Z

M385 1135

C386 1135 385 1133 384 1130

C383 1127 383 1125 385 1121

C385 1118 386 1115 386 1114

C386 1113 387 1112 387 1113

C387 1113 391 1108 395 1103

C399 1097 408 1084 416 1074

C431 1055 445 1036 446 1034

C447 1033 444 1027 443 1028

C442 1028 442 1028 442 1027

C443 1026 434 1010 433 1011

C432 1011 432 1011 432 1010

C433 1009 429 1002 424 997

C420 992 422 993 429 997

C432 1000 435 1002 436 1001

C436 1001 436 1001 436 1002

C435 1002 437 1005 439 1007

C441 1010 445 1015 447 1019

L452 1026

L455 1023

C470 1004 484 988 489 982

C493 978 496 974 495 974

C495 973 495 973 496 974

C498 974 498 975 495 977

C494 979 490 985 486 990

C483 994 475 1006 469 1016

L457 1033

L464 1044

C471 1054 475 1060 487 1075

C490 1078 489 1082 485 1082

C480 1082 472 1073 459 1053

L451 1041

L443 1052

C438 1058 429 1071 422 1079

C399 1109 391 1121 388 1131

C387 1133 386 1135 386 1136

C385 1136 385 1136 385 1135

Z

M1102 1130

C1097 1125 1097 1092 1102 1062

C1106 1041 1115 1000 1119 987

C1119 985 1119 985 1118 986

C1117 986 1117 986 1117 985

C1118 984 1118 983 1118 982

C1118 982 1118 982 1119 983

C1120 983 1120 983 1120 982

C1120 982 1120 981 1119 981

C1118 980 1112 994 1113 995

C1113 996 1113 996 1112 996

C1112 995 1109 1000 1107 1006

C1099 1023 1094 1031 1091 1032

C1086 1033 1083 1031 1082 1026

C1079 1016 1079 1016 1075 1026

C1073 1031 1071 1039 1069 1043

C1067 1047 1065 1053 1064 1055

C1063 1058 1062 1060 1062 1060

C1060 1060 1061 1053 1067 1038

C1078 1004 1084 981 1084 968

C1084 960 1087 957 1091 961

C1092 963 1092 964 1090 989

C1088 1003 1088 1021 1089 1023

C1090 1024 1090 1023 1092 1021

C1097 1015 1099 1010 1098 1009

C1098 1008 1098 1008 1099 1009

C1100 1009 1100 1009 1100 1008

C1099 1006 1099 1006 1100 1007

C1101 1007 1101 1007 1101 1006

C1100 1004 1100 1004 1101 1005

C1102 1005 1102 1005 1102 1004

C1101 1002 1101 1002 1102 1003

C1103 1003 1103 1003 1103 1002

C1102 1001 1102 1000 1103 1000

C1104 1001 1110 988 1109 986

C1109 986 1110 985 1110 986

C1111 986 1111 986 1111 985

C1110 983 1110 983 1111 984

C1112 984 1112 984 1112 983

C1111 982 1111 981 1112 981

C1112 982 1114 978 1116 974

C1123 960 1131 946 1133 946

C1137 946 1137 949 1133 963

C1132 970 1129 984 1127 994

C1125 1004 1121 1020 1119 1030

C1112 1062 1110 1076 1109 1098

C1109 1109 1109 1121 1109 1124

C1109 1128 1109 1130 1109 1129

C1108 1129 1108 1129 1108 1130

C1109 1132 1104 1132 1102 1130

Z

M1080 1014

C1079 1013 1079 1013 1079 1014

C1079 1015 1079 1016 1080 1016

C1080 1015 1080 1015 1080 1014

Z

M1121 977

C1121 975 1121 975 1120 976

C1119 978 1119 979 1120 979

C1121 979 1121 978 1121 977

Z

M625 1125

C622 1121 623 1114 630 1094

L636 1077

L634 1075

C631 1072 622 1056 618 1044

C615 1038 613 1032 612 1031

C611 1029 611 1029 613 1030

C615 1031 616 1032 623 1044

C627 1050 630 1055 631 1054

C631 1054 631 1054 631 1055

C630 1056 638 1069 639 1068

C639 1068 642 1060 645 1050

C653 1031 658 1016 662 1009

L665 1004

L665 1007

C666 1010 666 1012 657 1039

C634 1113 629 1128 628 1128

C627 1128 626 1127 625 1125

Z

M1447 1125

C1443 1123 1441 1121 1443 1119

C1444 1117 1447 1117 1457 1117

C1466 1117 1472 1117 1476 1116

C1482 1114 1490 1109 1490 1107

C1490 1106 1490 1106 1491 1106

C1493 1105 1499 1096 1499 1093

C1499 1088 1495 1078 1493 1074

C1487 1067 1478 1065 1460 1068

C1453 1069 1452 1069 1450 1068

C1447 1065 1447 1063 1451 1053

C1453 1048 1455 1040 1456 1035

C1457 1030 1459 1026 1459 1025

C1461 1024 1464 1024 1479 1024

C1496 1024 1498 1024 1497 1025

C1495 1028 1493 1029 1481 1029

C1474 1029 1468 1029 1467 1030

C1467 1030 1466 1032 1466 1034

C1466 1037 1465 1042 1464 1047

C1462 1052 1461 1056 1461 1056

C1461 1057 1465 1057 1470 1056

C1483 1056 1489 1057 1496 1064

C1505 1072 1511 1087 1509 1096

C1506 1109 1490 1123 1474 1126

C1464 1128 1452 1127 1447 1125

Z

M703 1122

C698 1121 697 1118 699 1109

C702 1098 705 1095 751 1052

L759 1044

L749 1044

C743 1044 733 1043 727 1043

C721 1042 715 1041 715 1042

C714 1042 714 1042 714 1042

C715 1041 714 1040 713 1039

L711 1037

L713 1036

C718 1034 727 1033 751 1032

C775 1032 777 1032 779 1036

C780 1039 779 1042 775 1044

C769 1046 715 1099 712 1105

C711 1106 710 1109 710 1110

L709 1112

L721 1112

C739 1110 791 1111 793 1112

C796 1114 796 1117 794 1120

L792 1123

L749 1123

C726 1123 705 1122 703 1122

Z

M1173 1081

C1174 1078 1177 1049 1178 1028

C1179 1010 1181 988 1183 984

C1183 983 1183 982 1183 982

C1183 981 1187 982 1188 984

C1189 984 1190 993 1192 1003

C1195 1024 1198 1040 1201 1048

C1203 1055 1206 1062 1207 1062

C1210 1062 1214 1042 1219 1008

C1225 961 1229 947 1233 947

C1235 947 1232 967 1227 1006

C1223 1036 1220 1049 1217 1059

C1216 1062 1215 1065 1216 1065

C1216 1066 1216 1066 1215 1066

C1215 1065 1214 1066 1214 1067

C1213 1070 1208 1072 1205 1071

C1202 1070 1198 1066 1197 1063

C1197 1062 1196 1061 1196 1062

C1195 1062 1195 1062 1195 1061

C1196 1061 1195 1057 1194 1054

C1193 1050 1190 1039 1188 1029

L1184 1010

L1184 1021

C1182 1052 1178 1076 1174 1081

C1173 1082 1173 1082 1173 1081

Z

M945 1042

C943 1039 938 1034 935 1030

L930 1022

L925 1024

C914 1029 892 1030 879 1027

C875 1026 871 1025 871 1026

C870 1026 870 1026 870 1025

C871 1025 869 1024 868 1023

C863 1020 857 1015 855 1011

C853 1007 853 1005 853 996

C853 987 853 985 856 978

C858 973 859 969 858 969

C858 968 858 968 859 968

C860 969 861 966 860 965

C860 964 860 964 860 964

C861 965 863 962 865 959

C876 942 904 914 916 908

C920 906 931 903 930 905

C929 905 930 906 931 907

C934 909 935 917 934 917

C933 918 934 918 937 918

C940 918 942 919 944 921

C946 922 947 923 947 922

C946 922 946 921 947 921

C948 921 948 922 948 922

C947 923 949 927 951 930

C956 940 957 948 957 966

C957 981 955 993 952 999

C951 1000 951 1002 952 1002

C952 1003 952 1003 951 1002

C950 1002 950 1002 950 1003

C951 1004 951 1005 950 1004

C949 1004 949 1004 949 1005

C949 1005 947 1008 944 1011

L939 1017

L944 1023

C946 1026 950 1032 953 1035

C955 1038 957 1041 957 1041

C957 1043 953 1046 951 1046

C951 1046 948 1044 945 1042

Z

M919 1019

C923 1018 926 1016 926 1016

C926 1015 924 1010 921 1005

C918 1000 916 995 916 994

C916 993 917 993 918 993

C920 993 931 1003 934 1008

L936 1011

L939 1007

C947 998 950 986 950 965

C950 948 948 938 945 930

C941 922 939 920 935 920

C933 919 931 919 931 917

C930 914 927 913 924 914

C922 915 920 916 921 916

C921 917 921 917 920 916

C917 915 887 942 876 956

C865 969 859 984 859 996

C859 1009 863 1015 878 1020

C884 1022 886 1022 899 1022

C909 1021 914 1021 919 1019

Z

M356 1018

C352 1018 345 1010 342 1002

C340 998 338 995 338 996

C338 1000 334 1013 332 1015

C323 1024 311 1004 307 974

C305 962 304 938 305 935

L306 933

L308 935

C311 938 311 939 311 943

C311 950 314 976 316 982

C318 990 321 997 322 996

C323 996 323 996 323 997

C322 998 325 1003 326 1002

C327 1001 332 978 334 967

C335 958 337 955 340 955

C343 955 344 958 344 967

C344 982 347 994 354 1003

C358 1009 358 1010 362 978

C366 953 370 934 376 914

C379 902 382 895 381 902

C380 904 377 935 374 962

C373 972 369 1001 367 1008

C366 1012 365 1015 363 1017

C361 1018 360 1019 359 1019

C359 1019 357 1019 356 1018

Z

M1089 1013

C1089 1010 1089 1009 1090 1010

C1090 1012 1090 1014 1090 1016

C1089 1017 1089 1016 1089 1013

Z

M700 1016

C699 1015 697 1012 695 1009

C689 996 684 975 679 935

C677 921 676 909 675 908

C675 906 676 905 679 908

C682 910 684 918 688 943

C693 969 699 995 701 995

C701 995 704 986 706 975

C715 932 730 888 736 885

C741 881 740 888 729 926

C725 941 718 968 711 997

C707 1017 705 1019 700 1016

Z

M1345 1013

C1341 1012 1336 1010 1334 1009

C1332 1009 1329 1008 1328 1008

C1327 1008 1326 1007 1327 1007

C1327 1006 1318 1000 1317 1001

C1316 1001 1316 1001 1316 1000

C1317 1000 1316 998 1315 997

C1311 992 1310 987 1310 978

C1310 965 1315 955 1331 939

C1349 922 1366 911 1378 909

C1385 908 1389 908 1393 911

C1398 915 1396 921 1390 920

C1381 917 1378 917 1373 919

C1370 920 1368 922 1369 922

C1369 923 1369 923 1368 923

C1366 921 1339 940 1328 951

C1318 961 1314 968 1315 978

C1315 981 1316 986 1316 988

C1319 993 1324 998 1331 1002

C1341 1007 1345 1008 1364 1007

C1378 1007 1381 1007 1386 1005

C1396 1001 1399 998 1404 989

C1410 977 1411 965 1410 948

C1409 933 1407 926 1402 921

C1398 917 1398 916 1404 918

C1405 919 1407 920 1409 922

C1410 924 1411 926 1411 925

C1412 925 1412 925 1412 926

C1411 926 1412 930 1413 933

C1416 942 1417 960 1415 972

C1414 984 1409 995 1403 1002

C1399 1006 1389 1011 1381 1013

C1373 1014 1353 1014 1345 1013

Z

M573 1006

C569 1003 563 997 561 990

C559 983 559 960 561 948

C562 940 569 911 570 911

C570 911 571 912 572 913

C573 915 572 918 570 927

C567 941 566 973 568 983

C569 990 572 995 574 994

C575 994 575 994 575 995

C574 999 588 1000 595 997

C612 988 623 957 628 897

C629 888 629 888 632 889

C633 889 634 889 635 889

C637 891 634 924 631 940

C625 971 618 988 607 998

C600 1005 594 1007 585 1007

C580 1007 575 1006 573 1006

Z

M568 971

C568 970 568 970 569 971

C569 972 569 972 569 973

C568 973 568 972 568 971

Z

M1469 965

C1468 963 1468 961 1468 959

C1469 957 1469 955 1469 955

C1469 954 1476 952 1480 951

C1488 950 1494 946 1500 940

C1511 930 1518 915 1518 900

C1518 890 1516 885 1512 883

C1506 881 1497 882 1487 885

C1470 890 1470 890 1466 888

C1460 886 1461 881 1467 878

C1473 875 1490 858 1490 856

C1489 856 1489 855 1490 855

C1491 856 1499 846 1503 838

C1505 834 1506 831 1506 829

C1505 826 1504 826 1502 826

C1494 826 1474 835 1461 845

C1456 849 1452 852 1451 852

C1451 852 1454 849 1458 846

C1465 839 1475 831 1476 831

C1477 831 1477 830 1476 830

C1476 829 1476 829 1477 829

C1477 830 1479 829 1481 828

C1486 825 1499 821 1504 821

C1510 821 1512 823 1512 830

C1512 835 1511 837 1509 841

C1506 847 1500 856 1495 861

C1493 863 1492 865 1492 866

C1493 866 1493 867 1492 868

C1491 868 1491 868 1492 867

C1492 866 1491 867 1489 868

C1486 871 1485 873 1487 871

C1489 870 1496 869 1505 870

C1511 870 1513 870 1518 872

C1528 878 1531 884 1531 900

C1531 908 1531 911 1529 918

C1525 929 1519 939 1511 948

C1502 956 1495 960 1485 963

C1481 963 1476 965 1475 966

C1471 969 1470 969 1469 965

Z

M1023 959

C1012 956 1005 945 1003 931

C1003 924 1005 911 1008 904

C1009 900 1010 897 1009 897

C1009 896 1009 896 1010 897

C1011 897 1011 897 1011 895

C1010 894 1010 894 1011 894

C1011 895 1013 893 1015 890

C1017 887 1019 883 1021 881

C1023 879 1024 877 1023 877

C1023 876 1023 876 1024 876

C1024 877 1027 875 1029 872

C1032 870 1035 867 1036 866

C1039 865 1039 865 1035 869

C1028 876 1018 894 1020 896

C1020 897 1020 897 1019 897

C1018 896 1013 910 1013 914

C1013 917 1013 917 1015 915

C1016 914 1016 914 1015 914

C1015 915 1014 915 1014 914

C1014 913 1015 913 1016 913

C1017 913 1021 911 1026 909

C1034 905 1036 905 1043 904

C1051 904 1052 904 1055 906

C1062 911 1062 924 1055 939

C1047 955 1035 963 1023 959

Z

M1036 948

C1044 942 1051 929 1051 919

C1051 914 1051 914 1048 913

C1042 910 1025 917 1017 926

C1013 930 1012 933 1015 939

C1019 949 1029 953 1036 948

Z

M1234 958

C1234 956 1234 955 1235 956

C1235 957 1235 959 1235 959

C1234 960 1234 959 1234 958

Z

M568 954

C568 953 568 952 569 953

C569 953 569 955 569 955

C568 956 568 955 568 954

Z

M945 920

C944 919 944 919 945 919

C946 919 946 919 946 920

C946 921 946 921 946 921

C945 921 945 921 945 920

Z

M1144 913

C1140 912 1132 909 1126 907

C1119 905 1113 903 1110 903

C1105 902 1094 904 1089 907

C1084 910 1084 910 1084 903

C1085 899 1091 874 1095 862

C1095 861 1094 860 1093 860

C1089 860 1086 858 1086 857

C1087 857 1089 856 1092 856

L1097 855

L1100 845

C1102 840 1103 834 1103 832

C1103 827 1105 824 1113 821

C1126 814 1148 809 1154 811

L1157 812

L1154 813

C1153 813 1147 815 1142 816

C1130 819 1121 823 1114 827

C1109 829 1108 830 1108 836

C1108 839 1107 843 1106 846

C1105 849 1105 850 1106 851

C1107 852 1107 852 1106 852

C1105 852 1104 852 1104 853

C1105 853 1107 852 1110 852

C1116 850 1118 850 1118 853

C1118 855 1116 856 1108 858

C1104 859 1102 860 1102 861

C1101 862 1099 871 1096 882

C1093 892 1091 901 1091 902

C1090 902 1091 903 1092 902

C1092 902 1093 901 1092 901

C1092 900 1092 900 1093 900

C1093 901 1096 900 1099 899

C1102 898 1108 897 1113 896

C1120 896 1122 896 1132 899

C1138 901 1147 903 1151 904

C1155 905 1159 906 1160 906

C1162 908 1161 911 1159 912

C1156 914 1153 914 1144 913

Z

M636 905

C636 903 636 902 637 903

C637 904 637 906 637 907

C636 908 636 907 636 905

Z

M926 903

C927 903 927 903 928 903

C928 904 927 904 926 904

C925 904 925 904 926 903

Z

M1042 902

C1043 902 1045 902 1046 902

C1047 903 1046 903 1044 903

C1042 903 1041 903 1042 902

Z

M1265 889

C1263 887 1269 867 1277 844

C1285 823 1287 815 1286 812

C1286 809 1287 809 1289 812

C1290 816 1288 828 1280 854

C1273 877 1271 884 1272 884

C1276 884 1334 838 1333 835

C1333 835 1334 834 1334 835

C1336 835 1349 822 1349 821

C1349 820 1349 819 1350 819

C1351 819 1353 818 1352 817

C1352 816 1352 816 1353 816

C1354 817 1361 808 1360 807

C1360 806 1360 806 1361 807

C1362 807 1362 807 1362 806

C1361 805 1361 804 1362 805

C1364 805 1363 797 1362 794

C1361 793 1360 793 1359 793

C1358 793 1358 792 1358 791

C1358 788 1348 785 1338 784

C1327 783 1319 784 1306 788

C1279 797 1256 814 1246 831

C1242 837 1241 838 1241 833

C1241 829 1243 825 1248 819

C1250 816 1252 813 1252 813

C1252 812 1252 812 1253 812

C1253 812 1257 809 1261 806

C1265 803 1271 799 1274 797

C1277 795 1280 793 1280 793

C1279 793 1280 792 1281 792

C1282 792 1286 791 1291 789

C1295 787 1303 784 1308 782

C1316 780 1318 780 1331 780

C1344 780 1346 780 1351 782

C1363 786 1368 792 1368 800

C1368 806 1366 810 1360 818

C1357 822 1354 825 1355 826

C1355 826 1355 826 1354 826

C1353 825 1339 838 1340 839

C1340 840 1340 840 1339 840

C1339 839 1333 843 1327 848

C1312 862 1295 875 1286 881

C1282 884 1278 887 1279 887

C1279 888 1279 888 1278 887

C1276 887 1276 887 1276 888

C1277 889 1277 889 1275 888

C1274 888 1274 888 1274 889

C1275 890 1266 890 1265 889

Z

M836 849

C834 848 835 842 840 824

C843 815 844 811 843 810

C842 808 842 807 844 806

C846 804 849 798 851 792

C854 785 857 779 858 778

C859 777 859 777 859 780

C859 781 858 786 857 790

C854 800 854 801 859 798

C864 795 871 789 871 788

C870 787 872 785 873 786

C874 786 879 779 883 772

C885 767 886 765 886 761

L886 757

L881 757

C878 757 874 758 866 762

C860 765 854 768 854 767

C853 766 861 760 869 756

C874 754 878 752 882 752

C887 752 888 752 890 755

C893 758 893 759 893 764

C892 777 879 795 864 804

C860 806 857 808 858 808

C858 809 858 809 857 808

C855 808 855 808 855 809

C856 810 856 810 855 809

C854 809 853 810 852 810

C851 812 844 836 843 843

C842 850 839 853 836 849

Z

M494 840

C487 837 474 820 468 807

C463 797 461 795 457 796

C454 797 452 796 452 795

C452 794 453 794 453 794

C455 794 461 787 460 786

C460 785 460 785 461 785

C462 786 470 778 470 775

C471 774 471 774 472 774

C473 774 482 766 482 765

C481 765 482 764 483 764

C486 764 484 767 469 784

L464 790

L467 792

C469 794 472 798 474 801

C476 805 478 808 478 807

C479 807 479 807 479 808

C477 811 495 831 501 835

C504 836 506 838 506 838

C506 839 505 840 504 839

C503 839 503 839 503 840

C504 841 504 841 503 840

C502 840 500 840 499 841

C498 841 496 841 494 840

Z

M439 820

C438 816 449 779 459 754

C466 738 468 735 467 740

C466 742 451 797 447 811

C444 820 441 824 439 820

Z

M1412 819

C1410 818 1411 813 1415 797

C1416 788 1418 781 1418 780

C1418 780 1415 781 1411 783

C1403 787 1397 787 1397 782

C1397 780 1400 778 1409 774

L1421 768

L1426 752

C1429 743 1432 733 1434 728

C1436 724 1438 718 1439 715

C1443 704 1441 715 1436 737

C1433 748 1431 758 1431 759

C1432 759 1431 760 1431 760

C1430 761 1431 761 1431 761

C1432 760 1432 760 1432 759

C1432 758 1432 758 1433 758

C1434 759 1448 749 1459 740

C1470 731 1478 721 1484 710

L1489 701

L1489 690

C1489 679 1488 679 1485 676

C1482 673 1482 673 1472 672

C1459 671 1452 672 1442 677

C1437 679 1430 684 1425 688

C1420 691 1413 697 1410 699

C1402 706 1404 703 1414 692

C1427 679 1443 669 1456 665

C1458 665 1465 664 1471 664

C1484 664 1489 665 1494 671

C1503 683 1499 709 1484 728

C1475 740 1455 756 1435 769

C1430 772 1427 775 1427 776

C1426 778 1424 787 1422 798

C1420 809 1418 819 1417 819

C1417 820 1413 820 1412 819

Z

M679 815

C678 815 677 814 676 813

C675 812 674 811 674 811

C673 812 675 796 676 789

C677 786 678 782 677 782

C677 781 677 781 678 781

C678 782 682 775 682 773

C682 771 666 795 664 799

C663 803 660 803 659 799

C659 798 664 782 668 770

C669 767 663 773 659 780

C654 785 648 796 646 802

C646 804 644 805 643 805

C642 806 641 805 642 805

C642 805 642 804 641 803

C640 803 640 801 640 798

C641 792 648 772 649 773

C650 773 650 775 650 778

L650 783

L654 777

C657 774 660 770 662 769

C664 767 665 765 664 765

C664 764 664 764 665 764

C666 765 667 764 668 764

C669 763 671 762 672 762

C675 762 675 763 674 766

C673 769 673 772 672 773

C671 775 671 777 672 777

C672 778 672 778 671 778

C671 778 670 779 670 780

C669 783 669 783 674 776

C677 773 681 768 683 765

C686 762 688 760 687 761

C685 762 685 762 686 761

C686 759 687 759 689 760

C693 761 693 762 690 770

C686 781 682 797 682 803

C682 805 683 808 683 810

C684 812 684 812 683 813

C682 814 681 815 682 815

C682 816 682 816 679 815

Z

M1032 816

C1032 815 1028 815 1024 815

C1020 814 1012 813 1007 813

C1002 812 993 811 987 810

C980 810 977 809 977 808

C976 806 982 771 986 757

C991 738 998 716 999 719

C1000 721 998 732 993 755

C991 765 988 778 987 785

C986 792 985 798 985 799

C984 801 985 801 993 800

C998 800 1005 800 1009 801

C1013 801 1022 802 1028 803

C1041 803 1043 805 1043 810

C1043 813 1040 816 1036 816

C1034 816 1032 816 1032 816

Z

M587 811

C585 809 585 809 585 799

C585 790 585 787 588 780

C590 775 591 770 591 769

C591 768 592 767 592 768

C593 768 598 756 597 755

C597 754 597 754 598 755

C599 755 599 755 599 754

C598 752 598 752 599 753

C600 753 600 753 600 752

C599 751 599 750 600 750

C600 751 601 749 602 747

C603 745 605 742 607 740

L609 738

L608 741

C608 742 606 750 603 758

C600 765 597 776 595 781

C593 791 592 803 594 805

C595 807 595 810 594 812

C592 814 590 813 587 811

Z

M751 807

C748 804 748 803 748 798

C748 792 751 781 755 773

C756 771 757 769 757 769

C756 769 743 785 740 792

C738 795 736 799 736 800

C736 803 732 808 730 808

C729 808 728 807 727 806

C724 804 725 798 728 788

C730 781 738 765 739 764

C741 763 743 767 742 770

C742 772 742 774 742 776

C741 779 741 779 743 778

C743 777 744 776 744 775

C743 773 743 773 744 774

C744 775 746 773 750 770

C757 764 761 761 763 763

C765 765 764 766 760 778

C758 784 757 791 756 794

C756 800 756 801 759 803

L762 806

L759 808

C756 811 754 811 751 807

Z

M791 800

C786 798 784 795 784 790

C784 786 786 782 790 779

C798 773 813 768 815 771

C815 772 816 773 816 775

C816 776 815 777 814 776

C811 776 798 780 799 781

C799 782 799 782 798 782

C797 781 795 782 793 783

C790 785 789 787 789 788

C789 791 791 794 793 792

C794 792 794 792 794 793

C793 794 796 795 801 795

C806 795 812 792 811 791

C811 790 811 790 812 790

C814 792 816 784 816 775

C816 768 817 767 818 768

C822 770 823 780 821 789

C820 793 819 795 816 797

C815 798 813 800 814 800

C814 801 813 801 803 802

C797 802 795 802 791 800

Z

M466 790

C466 789 466 789 467 789

C468 789 468 789 468 790

C467 791 467 791 466 791

C466 791 466 791 466 790

Z

M320 781

C318 779 317 778 317 778

C317 779 316 778 316 777

C315 761 315 757 316 754

C316 751 317 749 318 749

C322 749 323 752 323 761

C323 766 323 771 324 772

C325 773 325 773 328 761

C330 753 335 738 337 734

C339 731 340 730 342 730

C344 730 345 731 345 733

C345 735 337 761 332 776

C329 784 324 786 320 781

Z

M823 781

C823 780 823 780 824 781

C824 782 824 782 824 783

C823 783 823 782 823 781

Z

M750 778

C751 778 751 777 752 777

C752 778 751 780 750 780

C749 780 749 779 750 778

Z

M672 776

C672 776 672 775 673 775

C674 774 674 775 673 775

C673 777 672 777 672 776

Z

M824 757

C822 755 823 750 825 742

C826 741 826 738 825 737

C825 736 825 736 826 736

C827 737 827 736 827 736

C827 734 827 734 824 736

C823 737 822 737 821 736

C820 736 819 735 819 736

C818 736 818 735 819 734

C819 733 821 731 824 729

C826 728 828 726 829 726

C831 724 836 714 834 714

C833 715 833 716 833 717

C833 718 833 718 832 717

C831 716 831 716 830 717

C828 718 817 720 818 719

C819 719 818 718 817 717

C812 714 817 697 828 686

C832 682 833 681 837 681

C839 681 840 681 839 682

C832 683 817 708 819 713

C820 716 826 715 830 712

C837 708 838 706 844 694

C850 683 857 674 859 675

C861 677 860 678 857 684

C855 688 854 691 855 691

C855 692 855 692 854 692

C853 691 848 699 843 711

C841 716 839 720 839 720

C839 721 842 720 845 719

C854 716 854 719 844 724

C841 726 838 728 839 728

C839 729 839 729 838 728

C836 728 834 732 831 747

C828 758 827 760 824 757

Z

M1184 750

C1177 749 1174 748 1168 746

C1160 741 1150 732 1145 723

C1143 718 1143 716 1143 710

C1143 706 1144 701 1145 698

C1146 695 1147 692 1146 692

C1146 691 1146 691 1147 692

C1148 692 1148 692 1148 691

C1147 689 1147 689 1148 690

C1149 690 1149 690 1149 688

C1148 687 1148 687 1149 687

C1149 688 1151 685 1153 682

C1155 679 1159 674 1161 671

C1164 668 1166 665 1166 664

C1167 663 1167 663 1168 662

C1169 662 1172 660 1174 658

C1180 653 1192 646 1200 642

C1209 638 1221 633 1225 633

C1230 633 1237 633 1237 634

C1236 634 1234 634 1232 634

C1227 634 1215 638 1216 639

C1216 640 1216 640 1215 640

C1212 638 1176 662 1177 665

C1178 665 1177 667 1176 668

C1175 669 1174 669 1174 668

C1174 667 1169 672 1164 680

C1160 685 1158 688 1159 689

C1159 690 1159 690 1158 690

C1157 689 1152 699 1151 705

C1150 713 1151 717 1158 724

C1168 736 1182 740 1201 739

C1212 738 1218 736 1224 731

C1227 729 1229 727 1230 727

C1231 727 1233 731 1233 734

C1233 738 1229 743 1224 745

C1215 750 1200 751 1184 750

Z

M1176 666

C1177 665 1177 665 1176 666

C1175 667 1174 667 1174 668

C1174 668 1175 668 1176 666

Z

M539 743

C536 742 532 740 529 738

C526 735 526 734 526 730

C527 723 535 721 536 727

C536 729 535 730 535 730

C534 730 534 729 535 729

C535 728 535 728 534 728

C530 731 543 736 550 736

C553 736 554 735 554 733

C554 729 550 723 544 719

C539 716 537 713 537 710

C537 705 548 698 556 698

C564 698 567 702 560 703

C556 703 546 707 545 709

C544 710 548 712 549 711

C550 711 550 711 550 712

C549 712 549 713 550 713

C552 713 559 720 561 724

C565 732 562 742 555 744

C550 745 546 745 539 743

Z

M1025 738

C1025 732 1027 716 1032 694

C1034 685 1035 679 1035 679

C1034 678 1024 683 1025 684

C1025 685 1025 685 1024 685

C1024 685 1022 685 1021 685

C1018 686 1017 686 1016 684

C1014 682 1014 682 1015 679

C1015 677 1017 676 1027 672

L1038 667

L1042 645

C1045 633 1047 622 1047 620

C1047 617 1047 615 1048 614

C1049 613 1073 605 1082 603

C1091 601 1104 600 1104 602

C1103 602 1100 603 1096 604

C1085 606 1074 609 1063 613

L1053 617

L1053 621

C1053 623 1051 632 1049 642

C1047 653 1045 662 1046 662

C1046 664 1047 664 1048 664

C1057 661 1062 661 1068 662

C1074 663 1074 665 1067 667

C1056 669 1043 674 1042 676

C1041 678 1039 690 1036 704

C1031 729 1028 741 1026 743

C1025 743 1025 741 1025 738

Z

M443 729

C441 726 446 707 452 694

C455 688 455 688 456 690

C456 692 456 695 455 698

C454 701 454 702 456 701

C456 700 457 699 456 699

C456 698 456 698 457 698

C457 698 460 697 463 694

C470 689 478 685 482 685

C483 685 485 685 486 687

C488 690 486 692 479 694

C471 695 462 701 458 705

C454 708 453 712 454 713

C454 714 454 714 453 714

C453 713 452 716 450 721

C450 725 448 729 448 730

C446 731 444 731 443 729

Z

M955 710

C953 708 953 708 953 698

C954 685 956 669 959 658

C960 654 961 650 960 650

C960 650 959 651 958 652

C954 655 949 657 943 657

C939 657 937 657 935 654

C933 653 932 651 932 652

C932 652 931 648 931 644

C931 630 936 615 945 605

C951 599 955 597 962 597

C968 597 974 600 976 604

C976 605 977 606 977 605

C978 605 978 606 977 607

C977 608 977 608 978 608

C978 607 979 608 979 609

C979 610 978 611 978 611

C978 611 977 609 975 606

C970 598 961 596 956 601

L954 603

L956 601

L959 600

L957 602

C956 603 954 604 954 603

C952 602 943 618 941 627

C938 635 938 643 939 646

C940 649 940 649 944 649

C948 649 949 648 953 645

C958 641 959 640 958 639

C958 638 958 638 959 638

C960 639 964 634 970 626

C975 618 979 615 980 616

C983 616 982 618 980 624

C977 631 972 646 970 657

C970 662 969 675 968 687

C968 709 967 709 965 711

C962 714 958 713 955 710

Z

M633 706

C630 705 629 702 629 695

C629 689 632 683 639 676

C641 674 642 671 641 671

C641 670 641 670 642 670

C642 671 646 667 650 663

L658 656

L661 644

C663 637 667 626 669 619

C672 612 674 606 673 606

C673 605 673 605 673 605

C674 606 676 602 679 597

C687 580 705 565 713 569

C714 570 715 571 715 572

L715 575

L714 572

C713 568 709 569 702 575

C697 579 688 594 689 595

C689 596 689 596 688 595

C687 595 687 595 687 596

C688 598 688 598 687 597

C686 597 686 597 686 598

C687 600 687 600 686 599

C685 599 685 599 685 600

C686 601 686 602 685 602

C685 601 683 604 682 607

C679 616 670 640 670 641

C670 641 671 642 672 642

C673 643 681 638 680 637

C680 636 680 636 681 637

C683 637 683 637 683 636

C682 635 682 635 684 636

C685 636 685 636 685 635

C684 634 692 634 693 635

C693 636 692 637 691 638

C689 640 688 641 689 641

C689 642 689 642 688 641

C686 641 686 641 686 642

C687 643 687 643 685 642

C684 642 684 642 684 643

C685 644 685 644 684 644

C683 643 679 645 675 648

L667 654

L664 663

C663 668 660 676 658 682

C656 688 654 693 655 693

C655 694 655 694 654 694

C654 693 653 693 653 694

C653 695 646 703 644 704

C640 706 636 707 633 706

Z

M641 697

C642 696 645 692 647 689

C650 682 656 664 656 663

C655 662 639 678 639 680

C640 680 640 681 639 681

C638 680 636 682 634 687

C632 690 631 698 633 699

C634 701 637 700 641 697

Z

M671 645

C672 643 672 643 671 643

C670 643 669 644 669 645

C669 645 669 646 669 646

C670 646 670 645 671 645

Z

M734 693

C730 688 732 681 741 670

C744 667 746 663 745 663

C745 662 745 662 746 662

C748 663 755 655 755 651

C756 647 756 647 754 647

C754 648 753 648 752 648

C752 648 752 648 752 649

C753 650 752 650 751 649

C750 649 750 649 750 650

C751 650 750 651 749 651

C748 651 745 651 742 652

C738 652 737 652 734 650

C732 647 732 646 732 643

C733 638 736 633 742 626

C751 618 757 614 763 614

C769 614 770 615 770 619

C770 621 770 622 772 621

C773 621 773 621 772 622

C771 622 770 623 770 622

C769 622 769 622 769 623

C770 624 770 624 769 624

C768 624 768 624 767 625

C767 626 768 626 770 625

C771 624 772 623 773 623

C774 623 771 632 768 636

C767 637 766 639 767 639

C767 640 767 640 766 640

C765 639 763 642 763 645

C763 648 763 648 769 644

C773 641 776 639 775 639

C775 638 775 638 776 638

C777 639 782 637 782 636

C781 636 784 635 786 635

C792 635 792 635 792 637

C792 639 791 640 791 640

C790 639 786 644 787 645

C787 645 787 645 786 645

C785 644 778 647 779 648

C779 649 779 649 778 649

C778 648 774 650 770 653

L762 658

L762 664

C760 683 751 696 740 696

C737 696 736 695 734 693

Z

M744 688

C748 686 753 674 753 670

C752 669 753 668 753 669

C754 669 754 668 754 667

C754 665 753 665 748 671

C741 679 736 686 737 688

C738 691 740 690 744 688

Z

M753 644

C756 642 758 640 759 638

C760 636 762 633 764 631

C766 629 767 627 767 626

C766 626 767 624 768 622

C769 620 769 619 768 618

C767 617 766 616 765 616

C760 616 743 630 739 638

C737 642 736 646 738 647

C739 649 748 647 753 644

Z

M342 686

C340 685 338 679 338 674

L338 670

L334 674

C328 679 326 680 321 680

C319 680 317 679 315 677

C312 675 312 673 312 668

C312 658 317 645 324 636

C327 632 327 631 323 647

C320 658 319 669 320 671

C322 677 335 663 342 648

C346 639 347 637 348 637

C351 637 351 639 349 649

C347 660 346 674 349 679

C350 683 350 684 348 686

C346 688 345 688 342 686

Z

M446 665

C439 659 446 647 466 632

L473 626

L477 613

C478 606 480 599 480 598

C480 597 480 596 481 596

C482 596 482 595 480 608

C480 613 479 619 479 620

C480 621 479 622 479 622

C478 623 478 623 478 623

C478 624 482 622 486 619

C495 613 504 608 508 608

C510 607 511 607 512 609

C514 612 512 615 507 616

C503 617 478 631 476 633

C476 634 475 637 474 640

C471 649 465 659 460 662

C455 666 449 667 446 665

Z

M455 661

C459 659 466 651 464 649

C464 648 464 648 465 648

C466 649 468 644 467 642

C467 641 467 641 468 641

C469 642 469 641 468 639

C467 638 467 638 468 638

C469 639 470 638 470 637

C470 636 469 636 465 639

C449 648 442 657 446 662

C448 663 450 663 455 661

Z

M550 665

C547 665 545 664 545 665

C544 665 544 665 544 665

C545 664 544 663 542 662

C541 660 540 658 539 654

C538 650 538 647 539 647

C540 647 541 644 543 640

C551 624 566 612 569 619

C570 621 570 629 569 628

C568 628 568 629 568 630

C567 633 557 642 551 646

C546 649 545 650 545 653

C545 656 546 656 549 658

C554 660 556 663 554 664

C553 664 553 665 554 665

C554 666 554 666 554 666

C554 666 552 665 550 665

Z

M559 631

C561 629 563 626 563 625

C564 622 556 630 552 636

L549 640

L552 638

C553 637 557 634 559 631

Z

M1388 660

C1386 657 1387 646 1389 637

C1390 632 1391 627 1391 626

C1391 625 1392 624 1393 624

C1393 623 1393 623 1392 624

C1390 624 1387 625 1384 626

C1372 631 1355 632 1347 630

C1341 628 1336 623 1334 618

C1332 612 1333 600 1335 593

C1337 589 1338 585 1337 585

C1337 584 1337 584 1338 585

C1339 585 1339 585 1339 584

C1338 582 1338 582 1339 583

C1340 583 1340 583 1340 581

C1339 580 1339 580 1340 580

C1340 581 1342 578 1344 575

C1349 567 1367 550 1377 542

C1394 529 1405 524 1418 523

C1423 523 1427 523 1427 523

C1427 523 1427 524 1428 526

C1430 529 1427 531 1420 531

C1412 532 1403 536 1392 544

C1378 552 1360 569 1361 570

C1361 571 1361 571 1360 571

C1358 569 1346 585 1348 587

C1348 588 1348 588 1347 587

C1346 587 1346 587 1346 588

C1347 589 1347 590 1346 590

C1345 589 1341 600 1341 606

C1340 613 1342 618 1346 621

C1349 623 1351 623 1357 623

C1369 623 1392 617 1390 615

C1390 614 1390 614 1391 614

C1393 616 1397 612 1400 605

L1404 599

L1396 599

C1390 599 1389 599 1387 596

C1386 595 1385 593 1386 593

C1386 590 1391 589 1397 589

C1400 589 1405 588 1408 587

C1418 585 1418 585 1419 587

C1420 590 1419 594 1415 595

C1412 597 1412 597 1413 599

C1414 601 1413 603 1411 607

C1409 609 1407 613 1405 614

C1401 619 1394 643 1394 653

C1394 661 1391 665 1388 660

Z

M823 648

C821 647 822 640 824 633

C825 630 829 617 834 605

C838 593 841 583 841 582

C841 581 842 580 842 581

C843 581 843 581 843 580

C842 579 842 578 843 578

C843 579 845 575 847 571

C850 567 852 564 852 565

C852 566 847 584 841 602

C836 618 835 619 837 617

C838 616 838 616 838 618

C838 619 837 619 836 619

C835 619 835 620 835 620

C835 621 835 622 834 623

C834 624 833 625 833 626

C833 628 833 628 839 618

C846 607 853 599 856 600

C858 601 857 604 853 616

C851 621 850 627 849 631

C849 637 849 638 851 640

C852 642 855 643 857 643

C860 644 861 645 859 647

C857 648 847 649 848 648

C849 648 847 647 846 645

C844 643 843 640 843 639

C842 635 844 622 847 616

C847 614 848 613 848 612

C847 612 848 611 849 610

C849 610 850 608 850 608

C850 604 830 636 828 642

C827 648 825 651 823 648

Z

M880 636

C877 633 882 618 888 611

C892 606 895 606 894 609

C893 610 893 612 893 613

C893 614 892 615 892 614

C891 614 886 628 886 633

C886 637 885 638 883 638

C882 638 881 637 880 636

Z

M1352 632

C1352 632 1354 632 1354 632

C1355 633 1354 633 1353 633

C1352 633 1351 633 1352 632

Z

M1357 632

C1357 632 1359 632 1359 632

C1360 633 1359 633 1358 633

C1357 633 1356 633 1357 632

Z

M340 608

C339 603 343 596 353 582

C366 564 365 566 364 561

C361 554 359 541 359 540

C361 539 365 544 367 550

C368 553 370 555 370 554

C371 554 371 555 370 555

C369 558 372 557 374 554

C374 553 379 548 383 543

C387 539 390 535 389 534

C389 534 389 534 390 534

C390 535 391 534 392 534

C392 533 393 532 393 532

C396 532 393 537 384 550

L373 564

L375 568

C375 570 376 571 376 572

C376 572 376 572 377 572

C377 571 378 573 378 576

C378 578 377 580 376 581

C375 581 371 578 369 574

C368 572 367 572 361 580

C358 585 353 593 349 598

C343 606 340 610 340 608

Z

M612 598

C611 598 610 597 609 596

C608 595 607 594 607 594

C605 596 606 579 608 570

L611 562

L605 562

C602 563 599 564 597 564

C596 565 595 565 595 564

C596 564 595 563 594 563

C592 562 593 557 595 556

C596 555 600 555 603 554

C614 553 613 554 620 540

C624 532 627 526 628 526

C629 525 629 526 628 528

C627 529 624 537 623 545

C621 553 621 554 626 554

C630 554 632 555 633 557

C634 559 634 559 632 558

C631 558 631 558 631 559

C632 559 631 560 630 560

C629 560 626 560 624 560

L619 560

L617 567

C614 577 613 585 613 587

C614 590 615 590 617 590

C622 590 624 589 623 588

C623 587 624 587 625 588

C626 588 626 588 626 587

C625 586 625 586 627 587

C628 587 628 587 628 586

C627 585 627 585 629 586

C630 586 630 586 630 585

C629 584 629 584 631 585

C632 585 632 585 632 584

C631 584 633 583 634 583

C637 583 638 583 638 585

C639 587 638 588 638 587

C637 587 637 587 637 589

C638 590 638 590 637 590

C637 589 635 590 634 591

C626 597 617 600 612 598

Z

M311 587

C310 587 308 584 307 582

L305 579

L304 581

C299 591 290 590 287 578

C286 573 287 561 289 557

C291 554 291 554 291 564

C292 574 294 581 296 581

C296 581 298 580 298 579

C300 576 304 564 305 559

C306 557 307 556 308 556

C309 556 310 558 311 566

C312 575 313 580 315 580

C317 580 319 572 325 546

C328 533 332 522 335 520

C337 518 336 536 334 551

C329 575 325 585 320 587

C316 589 314 589 311 587

Z

M523 579

C520 573 524 553 534 528

C536 521 538 515 537 515

C537 514 537 514 537 514

C538 515 540 512 541 509

C543 505 544 503 544 503

C545 504 539 529 535 543

C533 548 532 553 533 554

C533 555 533 555 532 555

C531 554 531 555 531 555

C531 558 531 557 537 554

C546 548 556 545 559 548

C560 549 561 550 561 549

C562 549 560 557 559 560

C556 564 547 573 540 577

C535 580 533 581 529 581

C525 581 524 581 523 579

Z

M532 575

C533 575 534 574 533 574

C533 573 533 573 534 573

C536 575 555 558 554 555

C553 555 554 554 554 554

C555 554 555 554 555 553

C554 552 550 554 551 555

C551 556 551 556 550 556

C549 555 542 558 538 561

C534 564 530 565 531 564

C531 564 531 563 530 563

C529 562 528 567 528 573

C528 576 529 577 532 575

Z

M465 571

C463 568 464 564 466 561

C467 559 468 557 468 557

C468 556 469 556 469 556

C470 555 472 555 473 554

C476 552 482 553 482 555

C482 556 479 558 476 559

C470 562 467 565 467 568

C467 571 471 571 475 567

C477 566 478 565 479 565

C480 566 478 569 475 571

C470 574 466 574 465 571

Z

M892 570

C890 566 891 563 895 559

C899 555 906 552 908 553

C910 553 911 558 909 558

C908 558 908 559 908 561

C908 567 903 572 896 572

C894 572 893 571 892 570

Z

M902 565

C904 563 906 561 906 561

C906 559 905 559 902 561

C897 562 895 564 895 567

C895 569 899 568 902 565

Z

M774 544

C771 541 771 536 771 526

C772 519 776 496 778 491

C778 488 777 489 774 493

C771 497 771 497 773 495

C775 494 776 493 776 494

C776 495 774 497 771 497

C770 498 768 499 766 500

C762 504 757 505 754 504

C753 503 751 503 751 503

C751 504 750 501 750 498

C751 491 753 485 758 478

C760 476 761 474 760 474

C760 473 760 473 761 473

C761 474 764 473 766 471

C768 469 772 468 774 467

L778 467

L774 468

C769 471 761 480 758 486

C756 489 755 493 754 496

C754 499 754 500 756 500

C760 500 772 490 779 480

C780 478 785 464 789 449

C798 420 804 406 809 398

C813 392 815 391 817 393

C820 396 815 418 808 435

C806 441 804 446 805 446

C805 447 805 447 804 446

C803 446 803 446 803 447

C804 449 804 449 803 448

C802 448 802 448 802 449

C803 451 803 451 802 450

C801 450 801 450 801 451

C802 453 802 453 801 452

C800 452 800 452 800 453

C801 455 801 455 800 454

C799 454 799 454 799 455

C800 457 800 457 799 456

C798 456 798 456 798 458

C799 459 799 459 798 459

C798 458 796 461 794 464

C789 474 781 509 780 531

C780 546 778 548 774 544

Z

M802 439

C806 430 810 418 810 416

C809 416 809 415 810 416

C811 416 811 416 811 415

C811 415 811 413 812 412

C812 410 812 410 811 410

C810 411 810 411 811 409

C811 408 812 407 812 408

C813 408 813 407 813 405

C813 400 812 403 805 422

C802 432 799 441 799 442

C798 447 799 445 802 439

Z

M427 544

C427 544 426 543 424 541

C422 539 422 539 422 528

C422 521 423 514 424 505

C429 485 436 463 439 463

C441 463 440 470 436 490

C434 501 432 511 432 512

C433 512 433 513 432 513

C431 513 431 513 431 514

C431 515 433 514 434 513

C436 512 438 510 437 510

C437 509 438 509 439 510

C440 510 440 510 440 509

C439 508 444 508 451 508

C459 508 463 514 460 522

C457 528 450 536 444 540

C440 543 437 544 432 544

C429 544 426 544 427 544

Z

M439 534

C444 531 450 525 452 519

C454 515 454 515 452 515

C448 514 443 516 437 520

C434 522 432 523 431 523

C430 522 428 532 428 536

C428 538 435 537 439 534

Z

M1160 533

C1159 530 1159 528 1159 516

C1160 508 1161 495 1162 488

C1162 481 1163 474 1163 474

C1162 474 1155 475 1147 476

C1138 477 1131 478 1131 478

C1130 478 1123 490 1122 494

C1121 496 1121 496 1122 493

C1122 490 1122 487 1122 486

C1122 485 1122 484 1123 485

C1123 486 1124 485 1125 483

C1126 479 1126 479 1125 480

C1124 481 1123 482 1124 483

C1124 483 1124 484 1123 484

C1123 484 1121 484 1120 484

C1114 486 1111 479 1115 474

C1117 471 1122 469 1129 468

C1131 467 1132 466 1132 465

C1131 464 1131 464 1132 465

C1133 465 1133 465 1133 463

C1132 462 1132 462 1133 462

C1134 463 1140 448 1139 447

C1139 446 1139 446 1140 446

C1141 447 1158 410 1157 408

C1157 407 1157 407 1158 407

C1158 408 1161 402 1165 394

C1174 375 1179 368 1181 368

C1183 368 1183 369 1183 374

C1183 374 1182 383 1180 393

C1178 404 1177 414 1177 417

C1176 419 1176 422 1176 423

C1175 426 1171 459 1171 460

C1172 460 1172 461 1171 461

C1169 463 1170 465 1174 466

C1179 468 1179 470 1173 472

C1169 473 1169 473 1169 479

C1167 491 1166 522 1166 527

C1167 530 1167 533 1166 534

C1166 536 1162 535 1160 533

Z

M1157 465

L1164 465

L1164 462

C1165 460 1166 450 1168 439

C1169 428 1171 412 1173 402

C1175 392 1176 384 1175 384

C1175 383 1175 383 1176 383

C1177 382 1177 381 1177 380

C1177 379 1176 381 1174 383

C1173 386 1172 389 1173 389

C1173 390 1173 390 1172 390

C1171 389 1167 399 1168 400

C1168 401 1168 401 1167 401

C1166 400 1162 410 1163 411

C1163 412 1163 412 1162 412

C1161 411 1138 461 1139 463

C1139 463 1138 464 1138 463

C1137 463 1137 463 1137 463

C1137 464 1137 464 1136 465

C1136 466 1137 466 1143 466

C1146 465 1153 465 1157 465

Z

M987 525

C977 523 972 521 970 518

C969 516 969 516 973 509

C975 505 986 488 997 472

C1020 437 1030 421 1031 410

C1032 400 1030 396 1024 398

C1014 400 998 409 987 419

L982 425

L985 420

C989 415 1001 405 1009 399

C1014 396 1024 392 1029 392

C1030 392 1032 393 1034 395

C1037 398 1037 398 1038 406

C1038 413 1038 415 1035 421

C1033 426 1032 430 1033 430

C1033 431 1033 431 1032 430

C1031 430 1031 430 1031 431

C1032 433 1032 433 1031 432

C1030 432 1030 432 1030 433

C1031 435 1031 435 1030 434

C1029 434 1029 434 1029 436

C1030 437 1030 437 1029 437

C1029 436 1026 441 1023 446

C1019 452 1009 468 999 482

C987 501 982 508 983 510

C983 511 983 511 982 510

C981 509 981 509 981 510

C980 511 980 511 980 511

C980 512 993 511 1009 511

C1027 510 1037 511 1039 511

C1043 514 1044 518 1041 523

L1038 526

L1017 526

C1004 526 992 525 987 525

Z

M1240 519

C1237 518 1237 515 1238 506

C1240 492 1249 463 1266 418

C1270 409 1273 401 1273 400

C1272 400 1256 410 1248 415

C1244 418 1240 423 1238 425

C1234 430 1231 430 1229 427

C1227 423 1231 417 1239 409

C1247 402 1256 396 1267 391

C1280 385 1285 384 1295 384

C1302 384 1305 384 1309 386

C1323 393 1329 411 1321 423

C1315 432 1295 454 1279 467

C1276 469 1274 471 1274 471

C1273 471 1275 472 1277 472

C1288 472 1293 476 1292 482

C1290 488 1265 510 1253 516

C1246 520 1244 521 1240 519

Z

M1256 507

C1261 503 1284 481 1284 480

C1284 478 1267 480 1260 482

C1256 484 1253 485 1252 485

C1251 487 1247 504 1247 508

C1247 512 1247 512 1249 511

C1250 510 1254 508 1256 507

Z

M1286 447

C1302 430 1312 419 1313 414

C1314 410 1312 404 1310 401

C1306 395 1296 392 1285 395

C1281 396 1281 396 1279 403

C1274 420 1270 432 1263 451

C1259 463 1256 472 1256 473

C1256 474 1272 460 1286 447

Z

M1482 511

C1472 507 1463 503 1461 501

C1459 498 1460 495 1462 493

C1464 490 1467 491 1473 494

C1483 498 1489 500 1496 500

C1505 500 1510 498 1515 492

C1526 480 1526 461 1514 451

L1511 448

L1499 448

C1486 449 1484 448 1484 443

C1484 439 1485 438 1493 436

C1499 434 1501 433 1505 429

C1511 423 1512 419 1507 416

C1504 414 1498 415 1489 419

C1481 423 1478 423 1478 420

C1478 418 1480 416 1483 413

C1489 407 1495 405 1504 404

C1511 404 1511 404 1515 408

C1523 415 1524 421 1519 430

L1515 436

L1519 438

C1525 442 1531 448 1534 455

C1536 460 1537 462 1537 471

C1537 481 1536 482 1533 489

C1528 499 1522 505 1514 509

C1508 512 1507 512 1498 513

C1490 513 1487 513 1482 511

Z

M319 502

C311 499 309 490 315 480

C317 477 323 470 328 464

C335 455 337 452 337 450

C337 448 337 447 336 448

C334 448 335 447 337 445

C337 445 338 443 338 442

C338 441 336 444 333 448

C329 452 327 456 327 457

C327 459 320 464 317 464

C314 464 310 460 308 454

C306 450 307 440 310 433

C313 423 317 421 322 425

C326 428 326 430 322 440

C318 450 317 454 320 454

C321 454 326 448 335 438

C337 434 338 434 340 434

C341 435 342 436 342 438

C341 443 342 447 343 446

C344 446 344 445 343 445

C343 444 343 444 344 444

C344 444 348 441 352 437

C365 424 373 422 373 431

C373 434 372 435 365 442

C360 446 354 452 350 456

L344 462

L343 473

C343 485 343 490 342 489

C342 489 340 491 339 494

C334 501 325 505 319 502

Z

M328 494

C329 494 330 492 329 492

C329 491 329 491 330 491

C332 492 335 485 336 478

C336 474 337 470 336 470

C336 469 323 481 320 486

C317 491 316 492 319 494

C321 496 325 496 328 494

Z

M671 500

C661 495 661 486 671 474

C676 469 684 464 688 464

C690 464 690 464 688 465

C685 466 676 476 673 481

C669 489 670 490 679 490

C685 490 687 490 688 492

C691 495 690 499 686 501

C681 503 676 502 671 500

Z

M869 493

C868 492 865 487 863 484

C860 480 857 476 857 476

C856 475 855 477 854 481

C853 487 852 488 849 489

C846 489 846 488 847 483

C848 478 860 443 866 426

C868 421 870 416 869 416

C869 415 869 415 870 415

C870 416 872 413 873 410

C874 407 875 404 876 404

C876 405 870 432 865 448

C863 454 861 460 862 460

C862 460 861 461 861 461

C860 462 860 462 860 462

C860 463 863 460 867 457

C875 450 885 444 886 444

C886 445 869 463 864 467

L861 469

L864 472

C865 473 866 474 865 473

C864 471 864 471 865 472

C866 472 867 473 867 474

C866 474 868 478 871 482

C876 490 877 492 874 494

C872 495 872 495 869 493

Z

M467 491

C464 487 463 482 466 476

C469 468 481 459 486 462

C488 463 488 463 484 465

C477 468 470 476 470 480

C470 484 473 486 480 486

C487 486 487 487 488 489

C489 490 489 491 488 491

C488 490 487 491 486 492

C484 494 483 494 477 494

C471 494 471 494 467 491

Z

M908 488

C909 488 909 487 908 486

C906 485 913 458 919 439

C921 435 922 430 921 430

C921 429 921 429 922 429

C922 430 924 426 926 422

C928 417 930 413 930 412

C931 412 931 411 930 410

C930 409 930 409 931 409

C931 410 932 409 933 407

C933 406 933 405 934 405

C934 406 932 414 929 425

C924 440 916 470 913 485

C912 486 911 487 910 488

C909 489 908 489 908 488

Z

M530 478

C531 478 530 477 529 476

C525 472 529 449 538 424

C540 418 542 412 541 412

C541 411 541 411 542 411

C543 412 546 405 545 404

C545 403 545 403 546 403

C547 404 551 397 550 396

C550 395 550 395 550 395

C551 396 552 395 553 394

C555 391 554 396 549 410

C541 429 538 441 539 444

C539 445 539 445 538 445

C537 444 537 444 537 445

C537 447 537 447 540 445

C542 444 543 443 543 443

C543 442 550 444 552 446

C555 448 555 457 553 462

C551 467 545 474 541 476

C538 477 529 479 530 478

Z

M539 470

C541 469 542 467 542 467

C542 466 542 466 543 466

C545 466 548 460 549 455

C550 446 544 447 537 456

C534 460 534 462 533 467

C533 471 533 472 535 472

C536 472 538 471 539 470

Z

M345 476

C345 474 345 473 346 474

C346 475 346 477 346 477

C345 478 345 477 345 476

Z

M1399 450

C1396 444 1398 432 1412 385

C1417 371 1420 359 1420 359

C1420 358 1418 358 1411 359

C1406 360 1400 361 1396 361

L1390 361

L1388 369

C1385 387 1378 414 1376 416

C1376 418 1374 419 1374 419

C1372 418 1373 410 1378 385

C1382 372 1384 360 1383 360

C1379 359 1375 356 1375 354

C1374 352 1374 351 1374 350

C1374 350 1377 349 1381 349

C1387 348 1387 348 1388 344

C1388 342 1391 333 1393 324

C1395 315 1398 304 1400 300

C1401 296 1402 291 1402 290

C1402 288 1402 288 1403 289

C1404 290 1403 295 1402 304

C1400 315 1395 342 1394 346

C1393 347 1395 347 1408 344

C1428 340 1426 341 1429 333

C1433 320 1445 289 1449 280

C1451 276 1454 271 1456 270

C1457 269 1458 268 1458 269

C1454 280 1437 336 1438 337

C1438 338 1438 338 1437 338

C1437 337 1436 337 1436 338

C1436 339 1437 339 1439 339

C1443 339 1446 343 1446 347

C1446 351 1443 354 1436 354

C1433 355 1431 355 1431 356

C1430 356 1429 360 1428 364

C1427 367 1424 379 1421 390

C1417 400 1413 415 1411 424

C1407 439 1404 449 1401 451

C1400 452 1400 452 1399 450

Z

M638 442

C637 440 637 432 639 428

C639 426 639 426 636 428

C629 435 620 435 620 427

C620 423 624 414 629 409

C633 404 634 404 639 404

C642 404 644 404 644 405

C645 405 643 406 641 406

C636 406 633 408 628 417

C623 427 624 431 630 430

C635 428 640 423 642 416

C643 412 644 408 644 408

C645 407 648 404 648 405

C649 405 648 409 647 414

C645 422 644 430 644 439

C644 444 643 445 641 445

C640 445 639 444 638 442

Z

M409 435

C403 434 402 433 402 431

C402 428 404 425 411 416

L416 409

L411 408

C401 407 402 403 413 401

C416 400 421 399 425 398

C431 397 433 397 434 400

C435 402 433 405 430 406

C427 407 412 422 410 426

C409 427 409 427 424 425

C437 423 444 425 444 431

C443 436 440 437 431 436

C426 435 422 435 418 436

C415 436 412 436 409 435

Z

M1065 374

C1063 372 1058 366 1053 360

C1048 354 1043 349 1043 350

C1042 350 1042 350 1042 349

C1043 349 1041 345 1038 342

C1035 338 1031 332 1029 329

C1027 325 1025 322 1025 323

C1024 323 1024 323 1024 322

C1025 321 1022 316 1019 311

C1015 303 1013 302 1011 302

C1010 302 1009 302 1010 300

C1010 299 1010 299 1009 301

C1008 302 1006 312 1003 323

C998 346 996 351 994 351

C993 350 993 348 993 341

C993 334 994 328 1000 303

C1005 286 1011 262 1015 249

C1018 235 1022 222 1022 219

C1023 214 1023 214 1023 222

C1023 227 1023 231 1023 232

C1023 232 1022 237 1021 241

C1021 246 1018 258 1016 267

C1013 285 1013 284 1014 283

C1015 283 1015 283 1015 284

C1015 285 1014 285 1013 285

C1013 285 1011 290 1011 291

C1011 291 1019 280 1027 268

C1036 255 1047 239 1052 233

C1057 226 1062 220 1063 219

C1064 217 1064 217 1064 220

C1064 222 1063 224 1063 223

C1063 223 1054 235 1030 272

C1020 286 1013 297 1013 297

C1013 298 1015 299 1017 300

C1019 301 1023 307 1028 314

C1038 329 1044 338 1056 351

C1068 365 1071 370 1071 374

C1071 378 1069 378 1065 374

Z

M1144 373

C1145 373 1147 373 1147 373

C1148 374 1147 374 1146 374

C1144 374 1143 374 1144 373

Z

M1135 371

C1131 370 1126 366 1124 363

C1123 361 1122 360 1122 361

C1121 361 1121 361 1121 360

C1122 360 1121 357 1120 355

C1118 348 1119 331 1120 327

C1122 324 1127 320 1128 320

C1128 321 1128 322 1127 323

C1124 326 1123 331 1124 341

C1125 351 1128 360 1133 363

C1139 367 1156 363 1164 355

C1169 350 1173 342 1175 336

C1176 333 1179 319 1182 306

C1189 263 1199 224 1204 212

C1206 208 1207 204 1207 203

C1208 200 1208 200 1209 202

C1210 204 1209 208 1206 232

C1203 247 1199 267 1198 276

C1196 285 1193 302 1191 313

C1186 341 1183 349 1174 358

C1169 364 1163 368 1155 370

C1149 372 1140 372 1135 371

Z

M1274 335

C1273 335 1272 334 1272 333

C1271 330 1277 301 1287 263

C1290 249 1296 227 1299 215

C1302 202 1305 191 1306 191

C1308 184 1296 250 1289 279

C1286 292 1282 310 1280 318

C1279 325 1278 332 1277 333

C1277 334 1277 335 1277 335

C1277 336 1277 336 1274 335

Z

M296 333

C290 332 282 327 277 324

C275 322 273 320 272 321

C272 321 272 321 272 320

C273 320 272 317 271 315

C263 303 263 282 272 266

C273 263 274 260 273 260

C273 259 273 259 274 259

C274 260 275 258 276 257

C280 250 291 237 298 230

C306 223 319 213 320 213

C321 213 321 212 320 212

C320 211 320 211 321 211

C321 212 324 211 326 210

C329 210 331 209 331 210

C330 210 331 211 331 211

C332 212 333 213 333 215

C333 217 333 218 333 217

C332 217 332 217 332 217

C332 218 335 219 338 221

C345 225 356 236 361 244

C366 252 369 262 370 273

C371 282 371 283 369 292

C367 297 366 302 367 302

C367 303 367 303 367 303

C366 302 364 304 363 307

C361 309 358 313 356 315

C354 318 352 320 353 321

C353 321 353 321 352 321

C352 320 349 321 347 323

C340 328 331 331 323 333

C315 334 302 334 296 333

Z

M321 325

C336 322 349 314 356 303

C365 289 365 266 356 247

C351 236 336 219 330 219

C327 219 325 220 326 221

C326 222 326 222 325 222

C322 220 292 246 293 249

C294 249 294 250 293 250

C291 248 277 268 277 273

C277 275 276 276 276 275

C275 275 273 282 272 289

C272 297 274 306 278 312

C281 317 287 321 288 320

C289 320 289 320 289 321

C288 322 293 324 299 325

C303 326 314 326 321 325

Z

M698 310

C690 302 664 283 663 283

C663 284 662 288 662 294

C660 305 660 307 657 305

C656 304 656 302 656 292

C657 286 657 279 657 277

C657 275 657 272 658 272

C658 271 661 259 663 245

C666 231 669 217 670 214

C670 211 671 207 671 205

C671 203 671 203 672 204

C674 208 673 219 668 248

C666 260 666 264 667 264

C668 265 668 265 667 265

C666 265 666 265 666 265

C667 266 681 260 680 259

C680 258 681 258 682 259

C683 259 683 259 683 258

C682 257 682 257 684 258

C685 258 685 258 685 257

C684 256 684 256 685 256

C686 257 693 254 692 253

C692 252 692 252 693 252

C695 254 717 239 716 237

C715 236 718 233 719 234

C720 234 725 228 728 222

C731 217 731 214 731 208

C731 197 728 192 718 187

C714 185 703 184 695 186

C687 188 674 193 675 194

C675 195 675 195 674 195

C672 193 652 205 653 207

C654 207 653 208 652 209

C652 210 651 210 651 209

C651 209 649 211 646 214

L641 220

L645 213

C658 193 688 178 712 178

C717 178 726 181 729 185

C730 185 732 186 733 186

C734 187 734 187 734 188

C734 189 735 191 736 192

C737 194 739 198 739 201

C743 221 730 241 705 256

C702 258 699 260 700 260

C700 261 700 261 699 260

C697 260 697 260 697 261

C698 262 698 262 697 262

C696 261 691 263 692 264

C692 265 691 265 690 264

C689 264 689 264 689 265

C690 266 690 266 688 265

C687 265 687 265 687 266

C688 267 688 267 687 267

C687 266 682 268 677 270

C670 273 668 275 669 276

C670 276 676 281 682 285

C695 294 708 305 711 310

C712 313 712 313 710 314

C709 315 707 316 706 316

C706 316 702 313 698 310

Z

M718 235

C719 234 719 234 718 235

C717 236 716 236 716 237

C716 237 717 237 718 235

Z

M573 307

C572 305 573 266 574 255

C575 250 576 242 578 236

C579 230 580 224 580 224

C579 224 578 225 575 227

C559 239 555 241 552 238

C551 237 552 236 554 235

C555 235 562 230 570 225

C587 212 588 212 585 226

C580 243 579 256 579 281

C579 293 579 304 579 305

C579 307 579 308 577 308

C575 308 574 307 573 307

Z

M824 297

C811 293 800 280 799 266

C799 260 799 260 802 257

C807 252 812 254 807 259

C805 261 805 261 806 266

C808 277 814 285 824 290

C830 293 844 293 863 290

C887 285 891 283 890 271

C889 266 888 261 887 258

C884 252 873 241 860 231

C853 226 847 221 845 219

C844 217 842 215 842 216

C841 216 841 203 842 199

C844 193 859 183 867 183

C875 183 884 183 884 184

C885 185 882 185 876 185

C869 185 866 185 862 187

C852 191 845 198 845 205

C845 206 846 209 847 212

C849 215 852 218 863 226

C879 238 889 248 893 255

C894 257 895 262 896 266

C897 272 897 283 896 282

C896 282 895 283 894 285

C891 290 880 294 858 297

C846 299 830 299 824 297

Z

M498 279

C493 278 493 277 493 267

C494 262 495 253 495 249

C499 228 507 188 508 188

C509 187 512 188 513 190

C514 191 513 198 510 211

C506 237 503 255 502 267

C501 273 501 278 500 278

C499 278 499 279 500 279

C500 280 500 280 500 280

C500 280 499 280 498 279

Z

M424 220

C421 215 427 207 437 202

C440 201 443 199 442 199

C442 198 442 198 443 198

C443 199 459 193 477 185

C521 167 549 157 563 154

C565 154 569 153 570 152

C573 151 574 151 574 152

C576 153 572 156 566 158

C551 164 525 174 526 175

C526 176 526 176 525 176

C524 175 508 181 489 190

C445 208 442 209 443 210

C443 211 443 211 442 211

C441 210 429 216 430 217

C430 218 430 218 429 218

C428 217 426 220 427 221

C427 222 427 222 426 222

C426 222 425 221 424 220

Z

M674 211

C674 209 674 208 675 209

C675 210 675 212 675 212

C674 213 674 212 674 211

Z

M881 1089

C881 1088 882 1088 883 1087

C884 1086 884 1086 883 1087

C882 1089 881 1089 881 1089

Z

M860 999

C860 998 860 998 861 999

C861 1000 861 1000 861 1001

C860 1001 860 1000 860 999

Z

M559 629

C560 627 562 626 562 626

C562 626 561 627 560 629

C560 630 558 631 558 631

C557 631 558 630 559 629

Z

M902 563

C902 562 904 561 905 561

C905 562 904 562 904 563

C903 564 902 564 902 563

Z

M807 421

C807 420 808 419 808 418

C808 418 809 419 808 420

C808 421 807 422 807 423

C807 423 806 422 807 421

Z

M1258 469

C1258 468 1258 468 1259 468

C1260 468 1260 468 1260 469

C1259 470 1259 470 1258 470

C1258 470 1258 470 1258 469

Z

M534 470

C534 469 534 469 535 470

C536 470 536 470 536 471

C536 471 536 471 535 471

C534 471 534 471 534 470

Z

"/>

</svg>

