<?xml version='1.0' encoding='ascii'?>
<svg xmlns="http://www.w3.org/2000/svg" height="1080" version="1.1" width="1920">
    <g id="View Layer_LineSet" inkscape:groupmode="lineset" inkscape:label="View Layer_LineSet" xmlns:inkscape="http://www.inkscape.org/namespaces/inkscape">
        <g id="strokes" inkscape:groupmode="layer" inkscape:label="strokes" xmlns:inkscape="http://www.inkscape.org/namespaces/inkscape">
            <path d=" M 739.518, 897.685 739.607, 897.269 739.679, 896.936 741.783, 887.160 743.886, 877.383 744.669, 873.746 746.256, 869.269 749.597, 859.844 752.939, 850.419 753.033, 850.155 757.246, 841.085 761.459, 832.016 762.170, 830.484 767.783, 822.208 773.396, 813.932 775.886, 810.261 782.555, 802.810 788.771, 795.866 789.422, 795.337 796.736, 789.402 802.732, 784.537 805.750, 782.089 812.908, 778.160 821.674, 773.349 823.407, 772.397 824.125, 772.165 827.095, 771.206 836.611, 768.131 841.065, 766.692 850.953, 768.180 854.065, 768.649 860.211, 770.262 863.955, 771.245 869.713, 772.756 " fill="none" stroke="rgb(0, 0, 0)" stroke-linecap="butt" stroke-linejoin="bevel" stroke-opacity="1.0" stroke-width="3.0" />
            <path d=" M 371.764, 690.642 375.235, 692.034 381.179, 694.418 390.460, 698.140 399.741, 701.863 409.023, 705.585 414.804, 707.904 424.086, 711.626 425.965, 712.379 435.246, 716.102 442.083, 718.844 451.224, 722.898 460.366, 726.952 463.005, 728.123 472.147, 732.177 474.040, 733.016 483.181, 737.071 492.322, 741.125 501.464, 745.179 507.115, 747.685 514.716, 751.056 514.858, 759.508 515.026, 769.506 515.193, 779.505 515.361, 789.504 515.528, 799.502 515.665, 807.656 515.714, 810.546 506.407, 806.887 497.100, 803.228 487.794, 799.569 478.487, 795.911 471.579, 793.195 462.272, 789.536 452.966, 785.877 443.659, 782.218 442.083, 781.598 432.975, 777.472 423.866, 773.345 414.757, 769.218 405.648, 765.092 396.539, 760.965 387.430, 756.838 378.322, 752.712 372.637, 750.136 370.767, 749.289 " fill="none" stroke="rgb(0, 0, 0)" stroke-linecap="butt" stroke-linejoin="bevel" stroke-opacity="1.0" stroke-width="3.0" />
            <path d=" M 649.898, 846.542 649.931, 843.809 650.055, 833.810 650.178, 823.810 650.305, 813.517 650.431, 803.518 650.498, 798.242 641.197, 794.568 631.896, 790.894 622.596, 787.219 617.145, 785.066 609.044, 782.128 607.268, 781.484 606.279, 781.125 606.833, 791.110 607.387, 801.095 607.865, 809.719 608.433, 819.703 609.000, 829.687 609.568, 839.671 609.592, 840.087 609.775, 843.309 " fill="none" stroke="rgb(0, 0, 0)" stroke-linecap="butt" stroke-linejoin="bevel" stroke-opacity="1.0" stroke-width="3.0" />
            <path d=" M 649.898, 846.542 639.899, 846.706 629.900, 846.871 622.482, 846.993 612.877, 844.209 609.775, 843.309 612.330, 840.535 " fill="none" stroke="rgb(0, 0, 0)" stroke-linecap="butt" stroke-linejoin="bevel" stroke-opacity="1.0" stroke-width="3.0" />
            <path d=" M 649.931, 843.809 639.933, 843.973 629.934, 844.138 625.037, 844.219 615.432, 841.434 612.330, 840.535 611.762, 830.551 611.195, 820.567 610.627, 810.583 610.420, 806.945 609.866, 796.960 609.313, 786.975 609.044, 782.128 " fill="none" stroke="rgb(0, 0, 0)" stroke-linecap="butt" stroke-linejoin="bevel" stroke-opacity="1.0" stroke-width="3.0" />
            <path d=" M 651.934, 797.767 653.030, 797.277 662.158, 793.192 671.286, 789.108 680.413, 785.023 689.541, 780.939 698.669, 776.854 707.797, 772.770 716.925, 768.685 726.052, 764.600 731.880, 761.993 741.008, 757.908 748.116, 754.727 757.244, 750.643 766.372, 746.558 775.499, 742.474 784.627, 738.389 786.457, 737.570 787.102, 737.281 796.230, 733.197 805.358, 729.112 814.486, 725.028 823.613, 720.943 832.741, 716.859 841.869, 712.774 850.997, 708.690 860.125, 704.605 869.252, 700.520 878.380, 696.436 887.508, 692.351 896.636, 688.267 905.764, 684.182 914.891, 680.098 924.019, 676.013 933.147, 671.929 942.275, 667.844 951.402, 663.759 960.530, 659.675 966.316, 657.086 957.490, 661.787 948.664, 666.487 939.837, 671.188 931.011, 675.889 922.185, 680.590 913.359, 685.290 904.532, 689.991 895.706, 694.692 886.880, 699.393 878.054, 704.093 869.227, 708.794 860.401, 713.495 851.575, 718.196 842.749, 722.897 833.922, 727.597 825.096, 732.298 816.270, 736.999 813.310, 738.575 " fill="none" stroke="rgb(0, 0, 0)" stroke-linecap="butt" stroke-linejoin="bevel" stroke-opacity="1.0" stroke-width="3.0" />
            <path d=" M 651.934, 797.767 651.811, 807.766 651.741, 813.482 651.618, 823.481 651.496, 833.480 651.373, 843.480 651.355, 844.959 651.326, 847.356 651.355, 844.959 651.478, 834.960 651.601, 824.960 651.723, 814.961 651.846, 804.962 651.934, 797.767 642.633, 794.096 633.331, 790.424 624.030, 786.752 617.697, 784.253 " fill="none" stroke="rgb(0, 0, 0)" stroke-linecap="butt" stroke-linejoin="bevel" stroke-opacity="1.0" stroke-width="3.0" />
            <path d=" M 292.281, 647.966 292.407, 657.965 292.461, 662.285 292.583, 672.285 292.706, 682.284 292.828, 692.283 292.869, 695.655 292.026, 705.620 291.885, 707.277 291.929, 708.132 291.682, 718.129 291.435, 728.126 291.187, 738.123 290.940, 748.120 290.693, 758.116 290.445, 768.113 290.198, 778.110 290.162, 779.578 298.644, 784.875 307.126, 790.171 315.608, 795.468 324.091, 800.764 332.573, 806.061 341.055, 811.357 349.537, 816.654 358.019, 821.950 362.927, 825.015 372.029, 829.157 381.131, 833.299 390.233, 837.440 399.335, 841.582 408.438, 845.723 417.540, 849.865 426.642, 854.007 435.744, 858.148 440.357, 860.247 449.670, 863.890 458.983, 867.533 468.295, 871.176 477.608, 874.819 486.921, 878.461 496.234, 882.104 505.547, 885.747 514.860, 889.390 520.100, 891.439 529.725, 894.153 539.350, 896.866 548.975, 899.579 558.600, 902.292 568.225, 905.005 577.849, 907.718 587.474, 910.432 597.099, 913.145 606.724, 915.858 616.349, 918.571 624.453, 920.856 634.446, 920.474 644.439, 920.092 652.078, 919.800 662.020, 918.730 671.963, 917.659 681.906, 916.589 691.848, 915.519 701.791, 914.448 711.733, 913.378 713.107, 913.230 718.779, 909.892 721.210, 908.461 729.828, 903.388 738.445, 898.316 739.518, 897.685 729.554, 898.528 719.589, 899.372 714.426, 899.809 " fill="none" stroke="rgb(0, 0, 0)" stroke-linecap="butt" stroke-linejoin="bevel" stroke-opacity="1.0" stroke-width="3.0" />
            <path d=" M 877.188, 823.403 886.399, 827.295 892.463, 829.858 902.106, 827.209 911.748, 824.560 912.555, 824.338 917.291, 820.975 925.444, 815.186 926.839, 814.195 935.925, 810.017 945.010, 805.840 954.096, 801.662 963.181, 797.484 966.316, 796.043 975.527, 792.150 984.739, 788.257 993.950, 784.364 1003.161, 780.472 1012.372, 776.579 1021.583, 772.686 1030.795, 768.793 1040.006, 764.901 1049.217, 761.008 1058.428, 757.115 1067.640, 753.223 1076.851, 749.330 1086.062, 745.437 1095.273, 741.544 1104.484, 737.652 1113.696, 733.759 1122.907, 729.866 1132.118, 725.973 1141.329, 722.081 1150.541, 718.188 1159.752, 714.295 1168.963, 710.402 1178.174, 706.510 1187.385, 702.617 1196.597, 698.724 1205.808, 694.832 1215.019, 690.939 1224.230, 687.046 1233.442, 683.153 1237.279, 681.532 1246.423, 677.483 1248.282, 676.660 1257.426, 672.612 1266.570, 668.564 1275.714, 664.516 1284.858, 660.468 1294.002, 656.420 1303.146, 652.372 1312.290, 648.323 1320.319, 644.769 1322.581, 642.081 1323.514, 640.974 1329.954, 633.324 1335.307, 626.965 1341.748, 619.315 1347.523, 612.454 1350.874, 603.033 1354.226, 593.611 1355.911, 588.874 1360.132, 579.808 1364.354, 570.743 1365.067, 569.211 1369.087, 563.290 1374.705, 555.017 1378.796, 548.993 1385.469, 541.546 1391.690, 534.602 1399.458, 528.304 1405.427, 523.463 1408.676, 520.828 1417.444, 516.018 1421.060, 514.034 1426.338, 511.139 1427.756, 510.681 1436.076, 507.993 1443.998, 505.434 1453.860, 507.094 1459.352, 508.018 1469.025, 510.553 1470.482, 510.935 1472.668, 511.508 " fill="none" stroke="rgb(0, 0, 0)" stroke-linecap="butt" stroke-linejoin="bevel" stroke-opacity="1.0" stroke-width="3.0" />
            <path d=" M 846.004, 361.784 855.355, 365.326 864.707, 368.867 874.059, 372.409 883.410, 375.951 892.762, 379.493 902.114, 383.035 911.465, 386.577 920.817, 390.119 930.169, 393.661 939.521, 397.203 948.872, 400.745 958.224, 404.287 967.576, 407.829 976.927, 411.371 979.505, 412.348 988.857, 415.890 991.614, 416.934 " fill="none" stroke="rgb(0, 0, 0)" stroke-linecap="butt" stroke-linejoin="bevel" stroke-opacity="1.0" stroke-width="3.0" />
            <path d=" M 1522.375, 572.887 1520.631, 563.040 1520.367, 561.550 1514.809, 553.237 1511.680, 548.558 1505.409, 540.770 1499.137, 532.981 1498.745, 532.493 1491.672, 525.424 1486.384, 520.138 1477.920, 514.812 1475.345, 513.192 1472.668, 511.508 " fill="none" stroke="rgb(0, 0, 0)" stroke-linecap="butt" stroke-linejoin="bevel" stroke-opacity="1.0" stroke-width="3.0" />
            <path d=" M 1488.448, 558.549 1497.659, 562.442 1506.870, 566.335 1516.081, 570.227 1522.375, 572.887 1527.036, 564.040 1527.306, 563.526 1535.467, 557.747 1543.628, 551.968 1551.788, 546.188 1559.949, 540.409 1568.110, 534.630 1576.271, 528.850 1584.432, 523.071 1592.593, 517.292 1600.753, 511.512 1608.914, 505.733 1617.075, 499.954 1625.236, 494.174 1633.397, 488.395 1641.558, 482.616 1649.718, 476.836 1657.879, 471.057 1663.541, 467.047 1664.385, 457.083 1665.229, 447.119 1666.073, 437.154 1666.916, 427.190 1667.747, 417.382 1666.597, 407.449 1665.448, 397.515 1664.298, 387.581 1663.149, 377.647 1661.999, 367.714 1660.849, 357.780 1660.264, 352.722 1653.457, 345.396 1646.649, 338.071 1639.842, 330.746 1633.034, 323.421 1628.651, 318.704 1619.736, 314.174 1610.821, 309.644 1601.906, 305.114 1592.991, 300.584 1584.076, 296.054 1575.161, 291.524 1566.246, 286.994 1557.331, 282.464 1548.416, 277.933 1539.501, 273.403 1530.586, 268.873 1521.671, 264.343 1512.756, 259.813 1503.841, 255.283 1494.926, 250.753 1486.011, 246.223 1477.096, 241.693 1468.181, 237.162 1463.261, 234.663 1453.785, 231.468 1444.309, 228.274 1434.833, 225.080 1425.357, 221.885 1415.880, 218.691 1406.404, 215.497 1396.928, 212.302 1387.452, 209.108 1377.976, 205.914 1368.500, 202.719 1359.024, 199.525 1349.548, 196.331 1340.072, 193.136 1330.596, 189.942 1321.120, 186.747 1311.643, 183.553 1302.167, 180.359 1297.870, 178.910 1288.260, 181.676 1278.651, 184.442 1269.041, 187.208 1259.431, 189.975 1249.821, 192.741 1240.211, 195.507 1230.602, 198.273 1220.992, 201.039 1211.382, 203.805 1201.772, 206.571 1192.960, 209.107 " fill="none" stroke="rgb(0, 0, 0)" stroke-linecap="butt" stroke-linejoin="bevel" stroke-opacity="1.0" stroke-width="3.0" />
            <path d=" M 1628.651, 318.704 1619.203, 321.979 1609.754, 325.254 1600.306, 328.528 1590.857, 331.803 1589.352, 332.324 1589.169, 332.388 1579.720, 335.662 1576.708, 336.706 1575.874, 336.995 1566.425, 340.270 1558.165, 343.132 1554.583, 344.374 1545.135, 347.648 1535.686, 350.923 1526.238, 354.197 1516.789, 357.472 1507.340, 360.746 1497.892, 364.021 1488.443, 367.296 1478.994, 370.570 1469.546, 373.845 1460.097, 377.119 1450.648, 380.394 1447.412, 381.515 1441.879, 389.845 1436.724, 397.604 1435.455, 387.685 1434.353, 379.066 1431.470, 370.549 " fill="none" stroke="rgb(0, 0, 0)" stroke-linecap="butt" stroke-linejoin="bevel" stroke-opacity="1.0" stroke-width="3.0" />
            <path d=" M 984.889, 427.401 984.172, 429.656 981.141, 439.185 978.110, 448.715 975.973, 455.431 972.942, 464.960 972.797, 465.415 969.766, 474.945 969.650, 475.310 966.618, 484.840 963.587, 494.370 960.556, 503.899 957.525, 513.428 954.493, 522.958 951.462, 532.487 948.431, 542.017 945.400, 551.547 942.368, 561.076 939.337, 570.606 937.523, 576.308 937.523, 576.309 937.430, 576.600 " fill="none" stroke="rgb(0, 0, 0)" stroke-linecap="butt" stroke-linejoin="bevel" stroke-opacity="1.0" stroke-width="3.0" />
            <path d=" M 1169.871, 363.282 1166.255, 364.961 1157.184, 369.170 1148.113, 373.380 1147.025, 373.885 1139.981, 377.153 1139.153, 377.537 1130.082, 381.747 1122.557, 385.239 1117.611, 387.534 1108.540, 391.744 1103.221, 394.212 1094.150, 398.421 1090.319, 400.199 1081.248, 404.409 1072.177, 408.618 1063.106, 412.827 1054.035, 417.037 1044.965, 421.246 1041.018, 423.077 1031.947, 427.287 1025.719, 430.177 1016.648, 434.386 1015.050, 435.128 1011.984, 444.647 1008.918, 454.165 1005.852, 463.684 1004.612, 467.534 1001.546, 477.053 998.505, 486.495 995.439, 496.014 992.373, 505.532 992.156, 506.208 991.265, 508.974 988.199, 518.493 987.806, 519.713 984.740, 529.231 981.674, 538.750 978.609, 548.268 975.543, 557.787 972.477, 567.305 969.411, 576.824 968.635, 579.234 968.078, 580.964 977.223, 576.919 986.369, 572.874 995.514, 568.829 1004.660, 564.784 1013.805, 560.739 1022.950, 556.695 1032.096, 552.650 1041.241, 548.605 1044.121, 547.331 1053.266, 543.286 1062.412, 539.242 1071.557, 535.197 1076.460, 533.028 1083.334, 529.988 1092.479, 525.943 1101.625, 521.898 1110.770, 517.854 1117.077, 515.064 1126.223, 511.019 1135.368, 506.974 1144.514, 502.929 1153.659, 498.885 1162.805, 494.840 1171.950, 490.795 1181.095, 486.750 1190.241, 482.705 1193.854, 481.107 " fill="none" stroke="rgb(0, 0, 0)" stroke-linecap="butt" stroke-linejoin="bevel" stroke-opacity="1.0" stroke-width="3.0" />
            <path d=" M 1169.871, 363.282 1171.866, 373.082 1173.860, 382.881 1174.383, 385.447 1176.377, 395.246 1178.372, 405.045 1180.367, 414.844 1182.361, 424.643 1183.374, 429.619 1185.369, 439.418 1187.363, 449.217 1189.358, 459.016 1191.353, 468.816 1193.347, 478.615 1193.854, 481.107 1189.946, 481.352 " fill="none" stroke="rgb(0, 0, 0)" stroke-linecap="butt" stroke-linejoin="bevel" stroke-opacity="1.0" stroke-width="3.0" />
            <path d=" M 1166.255, 364.961 1168.249, 374.760 1170.052, 383.617 1172.047, 393.416 1174.041, 403.215 1176.036, 413.014 1178.030, 422.813 1179.043, 427.789 1181.038, 437.588 1183.032, 447.387 1185.027, 457.186 1187.022, 466.985 1189.016, 476.784 1189.946, 481.352 1180.801, 485.397 1171.655, 489.442 1162.510, 493.487 1153.364, 497.532 1144.219, 501.577 1135.073, 505.622 1125.928, 509.667 1116.783, 513.711 1115.363, 514.339 1106.217, 518.384 1097.072, 522.429 1096.545, 522.662 1087.400, 526.707 1078.254, 530.752 1069.109, 534.797 1066.295, 536.041 1057.150, 540.086 1048.004, 544.131 1042.406, 546.607 1033.261, 550.652 1024.115, 554.696 1014.970, 558.741 1005.824, 562.786 996.679, 566.831 987.534, 570.876 978.388, 574.921 968.635, 579.234 " fill="none" stroke="rgb(0, 0, 0)" stroke-linecap="butt" stroke-linejoin="bevel" stroke-opacity="1.0" stroke-width="3.0" />
            <path d=" M 912.555, 824.338 911.999, 822.868 911.382, 821.238 907.844, 811.885 906.806, 809.142 900.988, 801.009 895.790, 793.742 888.717, 786.672 883.429, 781.387 874.965, 776.061 869.713, 772.756 " fill="none" stroke="rgb(0, 0, 0)" stroke-linecap="butt" stroke-linejoin="bevel" stroke-opacity="1.0" stroke-width="3.0" />
            <path d=" M 917.291, 820.975 926.706, 817.607 936.122, 814.238 941.708, 812.240 950.919, 808.347 960.130, 804.454 969.342, 800.561 978.553, 796.668 987.764, 792.775 996.975, 788.883 1006.186, 784.990 1015.398, 781.097 1024.609, 777.204 1033.820, 773.311 1043.031, 769.419 1052.242, 765.526 1061.454, 761.633 1070.665, 757.740 1079.876, 753.847 1089.087, 749.954 1098.298, 746.062 1107.510, 742.169 1116.721, 738.276 1125.932, 734.383 1135.143, 730.490 1144.354, 726.598 1153.565, 722.705 1162.777, 718.812 1171.988, 714.919 1181.199, 711.026 1190.410, 707.133 1199.621, 703.241 1208.833, 699.348 1212.671, 697.726 1221.278, 692.634 1229.885, 687.543 1238.492, 682.452 1247.099, 677.360 1248.282, 676.660 " fill="none" stroke="rgb(0, 0, 0)" stroke-linecap="butt" stroke-linejoin="bevel" stroke-opacity="1.0" stroke-width="3.0" />
            <path d=" M 947.500, 605.074 950.514, 595.539 953.527, 586.004 956.540, 576.469 959.553, 566.933 962.566, 557.398 965.579, 547.863 968.593, 538.328 971.606, 528.792 974.619, 519.257 977.632, 509.722 980.919, 499.320 981.917, 496.164 984.930, 486.629 987.943, 477.093 990.956, 467.558 992.572, 462.446 995.585, 452.910 998.598, 443.375 1001.611, 433.840 1004.089, 425.999 1013.207, 421.893 1022.325, 417.787 1031.443, 413.682 1040.562, 409.576 1049.680, 405.470 1052.004, 404.423 1061.123, 400.317 1070.241, 396.211 1079.359, 392.105 1088.653, 387.920 1097.771, 383.814 1106.889, 379.708 1110.903, 377.900 1120.022, 373.794 1129.140, 369.688 1132.991, 367.954 1133.970, 367.513 1143.088, 363.407 1152.206, 359.301 1161.324, 355.195 1170.442, 351.089 1179.561, 346.983 1183.467, 345.224 1192.917, 341.953 1202.367, 338.682 1211.816, 335.410 1221.266, 332.139 1230.716, 328.868 1240.166, 325.596 1249.615, 322.325 1259.065, 319.054 1268.515, 315.782 1277.965, 312.511 1287.415, 309.240 1296.864, 305.968 1306.314, 302.697 1316.409, 299.202 1317.010, 298.994 " fill="none" stroke="rgb(0, 0, 0)" stroke-linecap="butt" stroke-linejoin="bevel" stroke-opacity="1.0" stroke-width="3.0" />
            <path d=" M 741.404, 522.839 751.048, 525.484 760.692, 528.129 770.336, 530.774 779.979, 533.419 789.623, 536.064 799.267, 538.708 808.911, 541.353 818.555, 543.998 828.199, 546.643 837.843, 549.288 847.487, 551.933 857.131, 554.577 866.775, 557.222 870.334, 558.198 879.978, 560.843 889.622, 563.488 899.266, 566.133 908.909, 568.778 918.553, 571.422 928.197, 574.067 937.430, 576.600 940.765, 586.027 944.099, 595.455 947.500, 605.074 938.212, 601.368 928.924, 597.662 919.637, 593.956 910.349, 590.250 901.061, 586.544 891.773, 582.838 882.485, 579.132 873.197, 575.426 863.909, 571.720 854.621, 568.014 845.333, 564.308 836.045, 560.602 826.757, 556.896 817.469, 553.190 808.181, 549.484 798.893, 545.778 789.606, 542.072 780.318, 538.366 771.030, 534.660 761.742, 530.954 752.454, 527.248 746.089, 524.709 741.404, 522.839 " fill="none" stroke="rgb(0, 0, 0)" stroke-linecap="butt" stroke-linejoin="bevel" stroke-opacity="1.0" stroke-width="3.0" />
            <path d=" M 727.224, 318.507 736.265, 322.780 745.306, 327.053 754.348, 331.325 763.389, 335.598 772.430, 339.871 781.471, 344.143 790.513, 348.416 799.554, 352.689 806.434, 355.940 812.204, 358.667 821.245, 362.940 830.286, 367.212 839.328, 371.485 840.584, 372.079 849.921, 375.658 859.258, 379.238 868.596, 382.818 877.933, 386.397 887.270, 389.977 896.608, 393.557 905.945, 397.136 915.282, 400.716 924.620, 404.296 933.957, 407.875 943.294, 411.455 952.632, 415.035 961.969, 418.614 971.306, 422.194 975.980, 423.986 984.889, 427.401 " fill="none" stroke="rgb(0, 0, 0)" stroke-linecap="butt" stroke-linejoin="bevel" stroke-opacity="1.0" stroke-width="3.0" />
            <path d=" M 1322.819, 284.803 1322.983, 278.247 " fill="none" stroke="rgb(0, 0, 0)" stroke-linecap="butt" stroke-linejoin="bevel" stroke-opacity="1.0" stroke-width="3.0" />
            <path d=" M 1431.470, 370.549 1423.854, 364.069 1416.237, 357.589 1408.621, 351.109 1401.005, 344.629 1393.388, 338.149 1385.772, 331.669 1378.156, 325.189 1370.539, 318.709 1362.923, 312.229 1355.306, 305.749 1347.690, 299.269 1340.074, 292.789 1332.457, 286.308 1324.841, 279.828 1322.983, 278.247 1314.240, 273.393 1305.497, 268.538 1296.755, 263.683 1293.216, 261.719 1284.474, 256.864 1275.731, 252.009 1266.989, 247.155 1258.246, 242.300 1249.503, 237.445 1240.761, 232.591 1232.018, 227.736 1223.276, 222.882 1214.533, 218.027 1205.289, 212.894 1195.730, 209.958 1192.960, 209.107 1183.400, 206.172 1173.841, 203.236 1164.282, 200.300 1154.722, 197.364 1145.163, 194.429 1135.604, 191.493 1126.044, 188.557 1116.485, 185.621 1106.926, 182.685 1097.366, 179.750 1087.807, 176.814 1078.248, 173.878 1070.110, 171.379 1060.125, 171.919 1056.213, 172.130 1046.615, 174.935 1037.016, 177.740 1032.925, 178.935 1023.582, 182.498 1014.238, 186.061 1004.894, 189.625 995.551, 193.188 986.207, 196.751 976.864, 200.315 967.520, 203.878 958.176, 207.441 948.833, 211.004 939.489, 214.568 930.146, 218.131 920.802, 221.694 911.458, 225.258 905.226, 227.634 896.089, 231.699 886.952, 235.763 877.816, 239.828 868.679, 243.892 859.542, 247.957 850.405, 252.021 841.269, 256.086 832.132, 260.150 822.995, 264.214 813.858, 268.279 804.722, 272.343 795.585, 276.408 786.448, 280.472 777.311, 284.536 768.174, 288.601 759.038, 292.665 749.901, 296.730 740.764, 300.794 731.627, 304.859 724.718, 307.932 718.644, 315.876 712.570, 323.820 706.496, 331.764 700.422, 339.708 694.348, 347.652 688.273, 355.596 682.199, 363.539 676.125, 371.483 670.051, 379.427 663.977, 387.371 657.903, 395.315 653.956, 400.476 " fill="none" stroke="rgb(0, 0, 0)" stroke-linecap="butt" stroke-linejoin="bevel" stroke-opacity="1.0" stroke-width="3.0" />
            <path d=" M 1225.803, 467.786 1225.444, 466.565 1222.621, 456.972 1219.798, 447.379 1219.002, 444.676 1216.179, 435.083 1213.356, 425.490 1210.533, 415.897 1207.710, 406.304 1205.434, 398.570 1202.611, 388.976 1199.788, 379.383 1196.965, 369.790 1196.293, 367.508 1193.470, 357.915 1192.033, 353.033 1201.467, 349.714 1210.900, 346.396 1220.333, 343.078 1229.767, 339.759 1239.200, 336.441 1248.634, 333.123 1258.067, 329.804 1265.931, 327.038 1275.364, 323.720 1284.798, 320.401 1294.231, 317.083 1301.811, 314.417 1309.703, 311.640 1312.705, 310.584 1320.160, 317.249 1327.615, 323.914 1335.070, 330.579 1342.526, 337.244 1349.981, 343.909 1357.436, 350.573 1364.891, 357.238 1372.346, 363.903 1379.801, 370.568 1387.257, 377.233 1394.712, 383.898 1402.167, 390.563 1405.491, 393.535 " fill="none" stroke="rgb(0, 0, 0)" stroke-linecap="butt" stroke-linejoin="bevel" stroke-opacity="1.0" stroke-width="3.0" />
            <path d=" M 1401.583, 393.780 1405.491, 393.535 1396.249, 397.354 1387.007, 401.173 1377.765, 404.992 1368.523, 408.811 1359.281, 412.630 1350.039, 416.449 1340.797, 420.268 1331.555, 424.087 1322.313, 427.906 1313.071, 431.725 1303.829, 435.544 1298.315, 437.823 1289.073, 441.642 1279.831, 445.461 1270.589, 449.280 1261.347, 453.099 1252.104, 456.918 1250.013, 457.782 1240.771, 461.601 1231.529, 465.420 1225.803, 467.786 " fill="none" stroke="rgb(0, 0, 0)" stroke-linecap="butt" stroke-linejoin="bevel" stroke-opacity="1.0" stroke-width="3.0" />
            <path d=" M 1225.444, 466.565 1234.686, 462.746 1243.928, 458.927 1248.375, 457.090 1257.617, 453.271 1266.859, 449.452 1276.101, 445.633 1285.343, 441.814 1294.585, 437.995 1296.676, 437.130 1305.918, 433.311 1315.160, 429.492 1324.402, 425.673 1333.644, 421.854 1342.886, 418.035 1352.128, 414.216 1361.370, 410.397 1370.612, 406.578 1379.854, 402.759 1389.097, 398.940 1398.339, 395.121 1401.583, 393.780 1394.128, 387.115 1386.673, 380.451 1379.218, 373.786 1371.762, 367.121 1364.307, 360.456 1356.852, 353.791 1349.397, 347.126 1341.942, 340.461 1334.487, 333.796 1327.031, 327.131 1319.576, 320.467 1312.121, 313.802 1309.703, 311.640 " fill="none" stroke="rgb(0, 0, 0)" stroke-linecap="butt" stroke-linejoin="bevel" stroke-opacity="1.0" stroke-width="3.0" />
            <path d=" M 365.127, 685.296 369.454, 687.016 369.582, 687.067 375.066, 689.247 384.358, 692.941 393.651, 696.636 402.944, 700.330 412.236, 704.024 421.529, 707.718 426.402, 709.655 426.539, 709.710 435.831, 713.404 440.357, 715.203 441.423, 715.680 450.552, 719.760 459.682, 723.840 464.461, 725.976 473.591, 730.057 482.720, 734.137 491.850, 738.218 500.979, 742.298 510.109, 746.378 517.900, 749.861 518.243, 749.979 520.559, 750.777 520.738, 750.839 530.192, 754.097 539.646, 757.355 549.101, 760.613 558.555, 763.871 568.009, 767.129 577.464, 770.387 586.918, 773.646 596.372, 776.904 603.865, 779.486 606.843, 780.512 607.221, 780.642 616.675, 783.901 617.697, 784.253 620.093, 782.447 628.079, 776.428 631.810, 773.617 " fill="none" stroke="rgb(0, 0, 0)" stroke-linecap="butt" stroke-linejoin="bevel" stroke-opacity="1.0" stroke-width="3.0" />
            <path d=" M 984.889, 427.401 988.621, 427.129 998.594, 426.401 1004.089, 425.999 " fill="none" stroke="rgb(0, 0, 0)" stroke-linecap="butt" stroke-linejoin="bevel" stroke-opacity="1.0" stroke-width="3.0" />
            <path d=" M 374.287, 747.802 383.396, 751.928 392.505, 756.055 401.614, 760.182 410.723, 764.308 419.831, 768.435 428.940, 772.562 438.049, 776.688 445.603, 780.111 454.910, 783.770 464.216, 787.428 473.523, 791.087 475.107, 791.710 484.414, 795.369 493.720, 799.028 503.027, 802.687 512.334, 806.346 515.665, 807.656 " fill="none" stroke="rgb(0, 0, 0)" stroke-linecap="butt" stroke-linejoin="bevel" stroke-opacity="1.0" stroke-width="3.0" />
            <path d=" M 519.802, 751.166 520.380, 751.366 524.877, 752.918 534.330, 756.182 543.782, 759.445 553.235, 762.708 562.687, 765.971 572.140, 769.235 581.592, 772.498 591.045, 775.761 600.497, 779.025 602.010, 779.547 602.563, 789.531 603.117, 799.516 603.612, 808.446 604.180, 818.430 604.748, 828.414 605.297, 838.072 605.531, 842.176 " fill="none" stroke="rgb(0, 0, 0)" stroke-linecap="butt" stroke-linejoin="bevel" stroke-opacity="1.0" stroke-width="3.0" />
            <path d=" M 605.531, 842.176 595.931, 839.376 586.331, 836.576 576.731, 833.776 567.131, 830.976 557.531, 828.176 547.931, 825.377 538.331, 822.577 535.506, 821.753 525.906, 818.953 523.695, 818.308 520.838, 817.475 " fill="none" stroke="rgb(0, 0, 0)" stroke-linecap="butt" stroke-linejoin="bevel" stroke-opacity="1.0" stroke-width="3.0" />
            <path d=" M 525.846, 814.899 520.838, 817.475 520.682, 807.476 520.525, 797.477 520.369, 787.478 520.213, 777.480 520.057, 767.481 519.900, 757.482 519.818, 752.195 519.802, 751.166 " fill="none" stroke="rgb(0, 0, 0)" stroke-linecap="butt" stroke-linejoin="bevel" stroke-opacity="1.0" stroke-width="3.0" />
            <path d=" M 524.877, 752.918 525.033, 762.917 525.190, 772.916 525.346, 782.915 525.502, 792.913 525.658, 802.912 525.815, 812.911 525.846, 814.899 528.773, 815.753 535.892, 817.829 545.492, 820.629 555.092, 823.429 564.692, 826.229 574.292, 829.029 583.892, 831.829 593.492, 834.628 603.092, 837.428 605.297, 838.072 " fill="none" stroke="rgb(0, 0, 0)" stroke-linecap="butt" stroke-linejoin="bevel" stroke-opacity="1.0" stroke-width="3.0" />
            <path d=" M 289.627, 645.604 289.714, 646.688 292.281, 647.966 292.374, 648.012 295.717, 649.677 298.185, 650.905 298.372, 650.998 298.755, 660.991 299.138, 670.984 299.459, 679.381 299.824, 689.375 300.189, 699.368 300.489, 707.587 300.675, 712.678 " fill="none" stroke="rgb(0, 0, 0)" stroke-linecap="butt" stroke-linejoin="bevel" stroke-opacity="1.0" stroke-width="3.0" />
            <path d=" M 617.417, 441.356 621.522, 442.895 622.563, 443.285 625.044, 444.214 " fill="none" stroke="rgb(0, 0, 0)" stroke-linecap="butt" stroke-linejoin="bevel" stroke-opacity="1.0" stroke-width="3.0" />
            <path d=" M 743.872, 523.512 735.554, 517.962 727.236, 512.411 718.918, 506.860 710.600, 501.309 702.282, 495.758 693.964, 490.207 685.646, 484.657 677.329, 479.106 669.011, 473.555 660.693, 468.004 652.375, 462.453 644.057, 456.902 635.739, 451.352 627.421, 445.801 625.044, 444.214 630.309, 438.250 630.452, 438.089 637.070, 430.592 643.689, 423.096 650.307, 415.599 656.925, 408.103 663.544, 400.607 670.162, 393.110 676.781, 385.614 683.399, 378.117 690.018, 370.621 696.636, 363.125 703.255, 355.628 709.873, 348.132 716.491, 340.635 723.110, 333.139 729.728, 325.643 732.088, 322.970 " fill="none" stroke="rgb(0, 0, 0)" stroke-linecap="butt" stroke-linejoin="bevel" stroke-opacity="1.0" stroke-width="3.0" />
            <path d=" M 984.172, 429.656 975.477, 426.324 966.139, 422.747 956.801, 419.169 947.463, 415.591 938.125, 412.013 928.786, 408.436 919.448, 404.858 910.110, 401.280 900.772, 397.703 891.434, 394.125 882.096, 390.547 872.758, 386.970 863.420, 383.392 854.082, 379.814 844.558, 376.165 835.518, 371.890 826.478, 367.614 817.438, 363.339 809.867, 359.758 804.100, 357.030 795.060, 352.754 786.020, 348.479 776.980, 344.203 767.940, 339.927 758.900, 335.652 749.861, 331.376 740.821, 327.100 732.088, 322.970 727.224, 318.507 720.560, 325.963 713.895, 333.419 707.231, 340.874 700.567, 348.330 693.903, 355.786 687.238, 363.242 680.574, 370.697 673.910, 378.153 667.246, 385.609 660.581, 393.065 653.956, 400.476 647.292, 407.932 640.628, 415.388 633.964, 422.844 627.299, 430.299 620.635, 437.755 617.417, 441.356 612.942, 450.299 608.467, 459.242 607.413, 461.347 598.686, 466.229 589.958, 471.111 581.231, 475.993 572.504, 480.875 563.776, 485.757 555.049, 490.639 546.321, 495.521 537.594, 500.402 528.867, 505.284 520.139, 510.166 511.412, 515.048 502.685, 519.930 493.957, 524.812 485.230, 529.694 476.502, 534.576 467.775, 539.458 459.048, 544.340 450.320, 549.222 441.593, 554.103 432.866, 558.985 424.138, 563.867 415.411, 568.749 406.683, 573.631 397.956, 578.513 389.229, 583.395 380.501, 588.277 371.774, 593.159 363.047, 598.041 354.319, 602.922 345.592, 607.804 336.865, 612.686 328.137, 617.568 319.410, 622.450 310.682, 627.332 299.918, 633.353 293.486, 641.010 289.627, 645.604 291.076, 646.366 291.953, 646.827 292.269, 646.993 292.362, 647.042 295.686, 648.790 298.175, 650.098 299.418, 650.751 302.242, 652.236 304.365, 653.353 307.519, 655.010 316.370, 659.664 325.222, 664.317 334.073, 668.970 342.924, 673.624 347.995, 676.289 356.846, 680.942 364.483, 684.958 365.127, 685.296 364.483, 684.958 355.632, 680.304 347.995, 676.289 339.143, 671.636 330.292, 666.983 321.440, 662.329 312.589, 657.676 307.519, 655.010 304.365, 653.353 302.242, 652.236 300.093, 651.107 " fill="none" stroke="rgb(0, 0, 0)" stroke-linecap="butt" stroke-linejoin="bevel" stroke-opacity="1.0" stroke-width="3.0" />
            <path d=" M 607.413, 461.347 616.502, 465.518 625.590, 469.689 634.679, 473.860 643.767, 478.031 652.856, 482.202 661.945, 486.373 671.033, 490.544 680.122, 494.715 689.210, 498.886 698.299, 503.057 707.388, 507.228 716.476, 511.399 725.565, 515.570 734.653, 519.741 741.404, 522.839 733.047, 517.347 724.690, 511.855 716.333, 506.363 707.976, 500.871 699.620, 495.379 691.263, 489.887 682.906, 484.395 674.549, 478.903 666.192, 473.411 657.835, 467.919 649.478, 462.427 641.122, 456.935 632.765, 451.443 624.408, 445.950 621.777, 444.222 620.932, 443.666 617.417, 441.356 " fill="none" stroke="rgb(0, 0, 0)" stroke-linecap="butt" stroke-linejoin="bevel" stroke-opacity="1.0" stroke-width="3.0" />
            <path d=" M 724.718, 307.932 727.024, 317.663 727.224, 318.507 " fill="none" stroke="rgb(0, 0, 0)" stroke-linecap="butt" stroke-linejoin="bevel" stroke-opacity="1.0" stroke-width="3.0" />
            <path d=" M 375.235, 692.034 375.065, 702.033 374.895, 712.031 374.725, 722.030 374.555, 732.029 374.385, 742.027 374.287, 747.802 372.035, 748.753 370.767, 749.289 370.850, 744.443 371.020, 734.445 371.190, 724.446 371.360, 714.448 371.530, 704.449 371.700, 694.451 371.764, 690.642 " fill="none" stroke="rgb(0, 0, 0)" stroke-linecap="butt" stroke-linejoin="bevel" stroke-opacity="1.0" stroke-width="3.0" />
            <path d=" M 301.462, 652.530 304.393, 654.068 307.546, 655.722 316.401, 660.369 325.256, 665.015 334.111, 669.661 342.966, 674.308 347.749, 676.818 356.604, 681.464 363.771, 685.225 363.605, 695.224 363.438, 705.222 363.271, 715.221 363.105, 725.219 362.938, 735.218 362.848, 740.633 362.777, 744.894 362.681, 750.635 " fill="none" stroke="rgb(0, 0, 0)" stroke-linecap="butt" stroke-linejoin="bevel" stroke-opacity="1.0" stroke-width="3.0" />
            <path d=" M 291.885, 707.277 300.405, 712.513 300.675, 712.678 " fill="none" stroke="rgb(0, 0, 0)" stroke-linecap="butt" stroke-linejoin="bevel" stroke-opacity="1.0" stroke-width="3.0" />
            <path d=" M 362.681, 750.635 354.147, 745.422 345.614, 740.208 337.080, 734.995 331.703, 731.710 330.561, 731.013 322.028, 725.800 313.494, 720.586 304.961, 715.373 303.772, 714.647 " fill="none" stroke="rgb(0, 0, 0)" stroke-linecap="butt" stroke-linejoin="bevel" stroke-opacity="1.0" stroke-width="3.0" />
            <path d=" M 309.651, 712.440 303.772, 714.647 303.675, 711.969 303.311, 701.976 302.948, 691.982 302.584, 681.989 302.556, 681.214 302.175, 671.222 301.794, 661.229 301.462, 652.530 " fill="none" stroke="rgb(0, 0, 0)" stroke-linecap="butt" stroke-linejoin="bevel" stroke-opacity="1.0" stroke-width="3.0" />
            <path d=" M 307.546, 655.722 307.927, 665.715 308.308, 675.708 308.434, 679.006 308.798, 689.000 309.161, 698.993 309.525, 708.987 309.651, 712.440 318.184, 717.653 326.718, 722.866 333.049, 726.733 333.202, 726.827 341.736, 732.040 350.270, 737.254 358.803, 742.467 362.777, 744.894 " fill="none" stroke="rgb(0, 0, 0)" stroke-linecap="butt" stroke-linejoin="bevel" stroke-opacity="1.0" stroke-width="3.0" />
            <path d=" M 295.717, 649.677 296.068, 659.671 296.419, 669.664 296.540, 673.105 296.904, 683.098 297.269, 693.091 297.324, 694.603 297.688, 704.596 297.735, 705.895 " fill="none" stroke="rgb(0, 0, 0)" stroke-linecap="butt" stroke-linejoin="bevel" stroke-opacity="1.0" stroke-width="3.0" />
            <path d=" M 1424.635, 520.950 1426.073, 523.792 1428.558, 533.238 1429.054, 535.126 1429.846, 545.094 1430.060, 547.797 1429.318, 557.769 1429.054, 561.318 1426.951, 571.095 1426.073, 575.171 1422.732, 584.596 1421.234, 588.822 1416.733, 597.753 1414.720, 601.748 1409.107, 610.024 1406.783, 613.450 1400.082, 620.873 1397.728, 623.481 1389.963, 629.782 1387.903, 631.453 1379.137, 636.265 1377.685, 637.061 1375.331, 637.759 " fill="none" stroke="rgb(0, 0, 0)" stroke-linecap="butt" stroke-linejoin="bevel" stroke-opacity="1.0" stroke-width="3.0" />
            <path d=" M 1322.581, 642.081 1323.913, 644.712 1330.510, 652.227 1332.484, 654.475 1340.947, 659.801 1342.927, 661.046 1352.138, 664.939 1361.349, 668.832 1361.696, 668.978 1370.907, 672.871 1380.118, 676.764 1380.465, 676.911 1390.137, 679.449 1392.380, 680.038 1402.374, 679.700 1405.307, 679.601 1414.895, 676.759 1418.752, 675.616 1422.828, 673.384 1431.594, 668.573 1435.670, 666.336 1443.436, 660.035 1448.020, 656.315 1454.721, 648.892 1459.401, 643.708 1465.014, 635.432 1469.376, 628.999 1473.877, 620.069 1477.563, 612.753 1480.905, 603.328 1483.646, 595.595 1485.750, 585.819 1487.393, 578.184 1488.135, 568.211 1488.657, 561.188 1488.448, 558.549 1487.656, 548.580 1487.393, 545.262 1484.849, 535.591 1483.646, 531.017 1482.421, 526.577 1477.904, 517.656 1476.053, 513.998 " fill="none" stroke="rgb(0, 0, 0)" stroke-linecap="butt" stroke-linejoin="bevel" stroke-opacity="1.0" stroke-width="3.0" />
            <path d=" M 1369.087, 563.290 1368.092, 565.265 1364.750, 574.690 1362.009, 582.423 1359.905, 592.200 1358.263, 599.835 1357.520, 609.807 1356.998, 616.830 1357.789, 626.799 1358.263, 632.756 1360.255, 640.334 1361.037, 643.307 1362.009, 647.001 1366.525, 655.923 1368.092, 659.018 1374.689, 666.533 1376.279, 668.344 1384.743, 673.670 1386.254, 674.621 1395.927, 677.160 1397.635, 677.608 1407.630, 677.270 1409.985, 677.191 1419.573, 674.349 1422.828, 673.384 " fill="none" stroke="rgb(0, 0, 0)" stroke-linecap="butt" stroke-linejoin="bevel" stroke-opacity="1.0" stroke-width="3.0" />
            <path d=" M 1451.379, 520.664 1459.315, 525.659 1465.829, 533.078 1470.346, 542.000 1470.669, 542.639 1473.153, 552.085 1473.649, 553.972 1474.441, 563.941 1474.656, 566.643 1473.913, 576.616 1473.649, 580.165 1471.546, 589.941 1470.669, 594.018 1467.327, 603.443 1465.829, 607.669 1461.329, 616.599 1459.315, 620.595 1453.702, 628.871 1451.379, 632.297 1444.678, 639.720 1442.324, 642.328 1434.558, 648.628 1432.498, 650.300 1423.732, 655.111 1422.281, 655.908 1412.693, 658.750 1412.063, 658.936 1402.237, 659.269 1393.182, 656.892 1385.246, 651.898 1383.899, 650.364 1378.732, 644.478 1375.331, 637.759 1373.892, 634.917 1371.349, 625.246 1370.912, 623.584 1370.120, 613.615 1369.905, 610.913 1370.648, 600.940 1370.912, 597.391 1373.015, 587.615 1373.892, 583.538 1377.234, 574.113 1378.732, 569.887 1383.232, 560.957 1385.246, 556.962 1390.859, 548.685 1393.182, 545.259 1399.884, 537.836 1402.237, 535.229 1410.003, 528.928 1412.063, 527.256 1413.081, 526.698 1421.847, 521.886 1422.281, 521.648 1424.635, 520.950 1432.498, 518.620 1439.710, 518.376 1442.324, 518.288 1451.379, 520.664 " fill="none" stroke="rgb(0, 0, 0)" stroke-linecap="butt" stroke-linejoin="bevel" stroke-opacity="1.0" stroke-width="3.0" />
            <path d=" M 1470.482, 510.935 1477.079, 518.450 1477.563, 519.001 1482.080, 527.923 1483.646, 531.017 " fill="none" stroke="rgb(0, 0, 0)" stroke-linecap="butt" stroke-linejoin="bevel" stroke-opacity="1.0" stroke-width="3.0" />
            <path d=" M 813.457, 779.245 814.896, 782.087 817.439, 791.758 817.876, 793.421 818.280, 798.507 818.882, 806.092 818.140, 816.064 817.876, 819.613 815.773, 829.390 814.896, 833.466 811.554, 842.891 810.056, 847.117 805.555, 856.048 803.542, 860.043 797.929, 868.319 795.605, 871.745 788.904, 879.168 786.550, 881.776 778.785, 888.077 776.725, 889.748 767.959, 894.560 766.507, 895.356 764.153, 896.054 " fill="none" stroke="rgb(0, 0, 0)" stroke-linecap="butt" stroke-linejoin="bevel" stroke-opacity="1.0" stroke-width="3.0" />
            <path d=" M 718.779, 909.892 721.306, 912.770 729.769, 918.095 731.749, 919.341 740.960, 923.234 750.171, 927.127 750.518, 927.273 759.729, 931.166 768.940, 935.059 769.287, 935.205 778.960, 937.744 781.202, 938.333 791.196, 937.995 794.130, 937.896 803.717, 935.054 807.574, 933.911 811.650, 931.679 820.416, 926.868 824.492, 924.630 832.258, 918.330 836.842, 914.610 843.543, 907.187 848.223, 902.003 853.836, 893.727 858.198, 887.294 862.699, 878.364 866.385, 871.048 869.727, 861.623 872.469, 853.890 874.572, 844.114 876.215, 836.479 876.957, 826.506 877.188, 823.403 877.480, 819.483 876.688, 809.515 876.215, 803.557 873.671, 793.886 872.469, 789.312 871.243, 784.872 866.726, 775.950 864.875, 772.293 " fill="none" stroke="rgb(0, 0, 0)" stroke-linecap="butt" stroke-linejoin="bevel" stroke-opacity="1.0" stroke-width="3.0" />
            <path d=" M 746.256, 869.269 745.820, 875.125 746.612, 885.094 747.085, 891.051 749.077, 898.628 749.859, 901.602 750.831, 905.296 755.347, 914.218 756.914, 917.313 763.511, 924.828 765.101, 926.639 773.565, 931.965 775.077, 932.916 784.749, 935.455 786.458, 935.903 796.452, 935.565 798.807, 935.486 808.395, 932.644 811.650, 931.679 " fill="none" stroke="rgb(0, 0, 0)" stroke-linecap="butt" stroke-linejoin="bevel" stroke-opacity="1.0" stroke-width="3.0" />
            <path d=" M 802.732, 784.537 811.103, 779.943 813.457, 779.245 821.320, 776.915 828.533, 776.671 831.146, 776.583 840.201, 778.959 848.137, 783.953 854.651, 791.373 859.168, 800.295 859.491, 800.934 862.034, 810.605 862.471, 812.267 862.875, 817.354 863.478, 824.938 862.736, 834.911 862.471, 838.460 860.368, 848.236 859.491, 852.313 856.149, 861.738 854.651, 865.964 850.151, 874.894 848.137, 878.890 842.525, 887.166 840.201, 890.592 833.500, 898.015 831.146, 900.622 823.380, 906.923 821.320, 908.595 812.554, 913.406 811.103, 914.203 801.515, 917.045 800.885, 917.231 791.060, 917.564 782.005, 915.187 774.068, 910.193 772.722, 908.659 767.554, 902.773 764.153, 896.054 762.714, 893.212 760.171, 883.541 759.734, 881.879 758.942, 871.910 758.727, 869.208 759.470, 859.235 759.734, 855.686 761.837, 845.910 762.714, 841.833 766.056, 832.408 767.554, 828.182 772.055, 819.252 774.068, 815.257 779.681, 806.980 782.005, 803.554 788.706, 796.131 789.422, 795.337 " fill="none" stroke="rgb(0, 0, 0)" stroke-linecap="butt" stroke-linejoin="bevel" stroke-opacity="1.0" stroke-width="3.0" />
            <path d=" M 860.211, 770.262 866.385, 777.296 870.902, 786.218 872.469, 789.312 " fill="none" stroke="rgb(0, 0, 0)" stroke-linecap="butt" stroke-linejoin="bevel" stroke-opacity="1.0" stroke-width="3.0" />
            <path d=" M 297.324, 694.603 292.869, 695.655 " fill="none" stroke="rgb(0, 0, 0)" stroke-linecap="butt" stroke-linejoin="bevel" stroke-opacity="1.0" stroke-width="3.0" />
            <path d=" M 300.489, 707.587 297.735, 705.895 " fill="none" stroke="rgb(0, 0, 0)" stroke-linecap="butt" stroke-linejoin="bevel" stroke-opacity="1.0" stroke-width="3.0" />
            <path d=" M 796.736, 789.402 805.948, 793.295 815.159, 797.188 818.280, 798.507 " fill="none" stroke="rgb(0, 0, 0)" stroke-linecap="butt" stroke-linejoin="bevel" stroke-opacity="1.0" stroke-width="3.0" />
            <path d=" M 937.523, 576.308 927.875, 573.678 918.227, 571.047 908.580, 568.417 898.932, 565.787 889.284, 563.156 879.636, 560.526 869.988, 557.896 860.340, 555.265 850.692, 552.635 841.044, 550.005 831.397, 547.374 821.749, 544.744 812.101, 542.114 802.453, 539.483 800.679, 539.000 791.031, 536.370 781.383, 533.739 771.736, 531.109 762.088, 528.479 752.440, 525.848 743.872, 523.512 741.404, 522.839 " fill="none" stroke="rgb(0, 0, 0)" stroke-linecap="butt" stroke-linejoin="bevel" stroke-opacity="1.0" stroke-width="3.0" />
            <path d=" M 1413.081, 526.698 1422.292, 530.590 1428.558, 533.238 " fill="none" stroke="rgb(0, 0, 0)" stroke-linecap="butt" stroke-linejoin="bevel" stroke-opacity="1.0" stroke-width="3.0" />
        </g>
    </g>
</svg>
