<svg xmlns:dc="http://purl.org/dc/elements/1.1/" xmlns:cc="http://creativecommons.org/ns#" xmlns:rdf="http://www.w3.org/1999/02/22-rdf-syntax-ns#" xmlns:svg="http://www.w3.org/2000/svg" xmlns="http://www.w3.org/2000/svg" xmlns:sodipodi="http://sodipodi.sourceforge.net/DTD/sodipodi-0.dtd" xmlns:inkscape="http://www.inkscape.org/namespaces/inkscape" viewBox="0 0 80 80" version="1.1" x="0px" y="0px"><path style="text-indent:0;text-transform:none;direction:ltr;block-progression:tb;baseline-shift:baseline;color:#000000;enable-background:accumulate;" d="m 38.587528,0.83111983 0,0.05622 c -1.257718,0.074362 -2.557529,0.40320047 -3.682424,1.18062427 -1.329302,0.9186914 -2.392789,2.4246201 -2.89534,4.5819469 -0.664645,2.8531548 -0.07045,5.712256 0.618422,8.517362 0.688873,2.805105 1.45322,5.546815 1.264955,8.23626 -0.38055,5.436274 -2.483416,11.365532 -4.497617,16.978503 -2.009096,5.598746 -3.907947,10.919307 -3.822974,15.263786 -3.73e-4,0.0085 3.49e-4,0.01961 0,0.02811 -0.09129,2.224148 0.646102,6.338792 2.023927,10.681839 1.383093,4.35965 3.38687,8.889415 5.903122,11.693804 l 0.02811,0.02811 c 0.763801,0.675965 1.978984,0.879786 3.035892,1.011963 1.056907,0.132178 1.911487,0.140551 1.911487,0.140551 l 0.05622,0 0.787083,0 c 0,0 0.05192,5.6e-5 0.05622,0 0.0085,0 0.01969,6.53e-4 0.02811,0 0.118524,-0.0017 0.877431,-0.01822 1.855267,-0.140551 1.056906,-0.132177 2.300201,-0.335998 3.064001,-1.011963 l 0,-0.02811 0.02811,0 c 2.516252,-2.804389 4.520031,-7.334154 5.903122,-11.693804 1.378863,-4.346323 2.116564,-8.487019 2.023928,-10.709949 -2.85e-4,-0.0068 2.98e-4,-0.02133 0,-0.02811 0.08701,-4.345701 -1.812879,-9.634144 -3.822975,-15.235676 -2.014201,-5.612971 -4.145177,-11.514119 -4.525726,-16.950393 -0.188267,-2.689446 0.604192,-5.459265 1.293064,-8.26437 0.688873,-2.805106 1.28307,-5.6642072 0.618423,-8.517362 C 45.337382,4.4925842 44.245787,2.9866555 42.916484,2.0679641 41.791589,1.2905404 40.513698,0.93513933 39.262171,0.85922963 c -0.0187,-4.156e-4 -0.03748,2.923e-4 -0.05622,0 -0.20839,-0.011167 -0.412182,-0.032693 -0.618422,-0.02811 z m 0.337321,0.92763347 c 1.201705,0.031006 2.438132,0.3442338 3.485653,1.0681839 1.145888,0.7919313 2.098629,2.0476992 2.55802,4.0197448 0.606789,2.6047893 0.06534,5.311427 -0.618423,8.09571 -0.578103,2.354046 -1.272535,4.754849 -1.349285,7.196186 -2.70018,-0.123514 -5.412731,-0.160525 -8.15193,0.02811 -0.07226,-2.451066 -0.768938,-4.861116 -1.349285,-7.224296 -0.68376,-2.784283 -1.225211,-5.4909207 -0.618422,-8.09571 0.459391,-1.9720456 1.412133,-3.2278135 2.558019,-4.0197448 1.05568,-0.7295885 2.278902,-1.0427339 3.485653,-1.0681839 z m 0.05622,23.5281567 c 1.421087,-0.0049 2.832738,0.02482 4.244626,0.08433 0.179666,1.340796 0.458772,2.686245 0.787083,4.047855 -3.198505,-0.275571 -6.552418,-0.347448 -10.175857,-0.02811 0.320844,-1.333845 0.608721,-2.649593 0.787082,-3.963525 1.453921,-0.09113 2.915458,-0.135601 4.357066,-0.14055 z m -0.11244,7.561618 c 2.052673,-0.0029 4.08757,0.04913 6.128003,0.16866 0.790467,2.585899 1.714795,5.16758 2.614239,7.674059 2.01416,5.612855 3.883997,10.862059 3.794864,14.926465 l 0,0.02811 c 0.0864,1.952704 -0.662999,6.13906 -2.023927,10.428848 -1.356529,4.27592 -3.336866,8.70465 -5.678241,11.328372 -0.437432,0.387129 -1.566383,0.691179 -2.55802,0.815193 -0.939445,0.117488 -1.689399,0.113209 -1.770936,0.112441 l -0.05622,0 -0.787083,0 c 0,0 -0.83552,0.01157 -1.827157,-0.112441 C 35.712514,78.094221 34.583564,77.762061 34.146132,77.374932 31.81472,74.748027 29.791854,70.336545 28.439781,66.07467 27.078852,61.784883 26.357559,57.626636 26.443963,55.673932 l 0,-0.02811 c -0.08913,-4.064405 1.780705,-9.34172 3.794864,-14.954575 0.899444,-2.506479 1.823773,-5.08816 2.61424,-7.674059 2.008233,-0.104821 4.017533,-0.165874 6.015562,-0.16866 z" fill="#000000" fill-opacity="1" stroke="none" marker="none" visibility="visible" display="inline" overflow="visible"></path></svg>